<svg width="517" height="495" viewBox="0 0 517 495" fill="none" xmlns="http://www.w3.org/2000/svg">
<path d="M461.9 265C461.9 379.82 368.82 472.9 254 472.9C139.18 472.9 46.1 379.82 46.1 265C46.1 150.18 139.18 57.1 254 57.1C368.82 57.1 461.9 150.18 461.9 265Z" stroke="#1E1D5C" stroke-width="5"/>
<path d="M513.7 289.6C513.7 317.269 491.269 339.7 463.6 339.7C435.931 339.7 413.5 317.269 413.5 289.6C413.5 261.931 435.931 239.5 463.6 239.5C491.269 239.5 513.7 261.931 513.7 289.6Z" fill="#FFFAE1" stroke="#1E1D5C" stroke-width="5"/>
<path d="M431.578 292.289C431.838 294.282 432.813 296.112 434.321 297.438C435.829 298.764 437.766 299.495 439.773 299.495C441.779 299.495 443.717 298.764 445.225 297.438C446.733 296.112 447.708 294.282 447.968 292.289H431.578ZM476.233 308.957C476.233 309.125 476.201 309.292 476.137 309.448C476.073 309.604 475.979 309.746 475.86 309.865C475.742 309.985 475.601 310.079 475.445 310.144C475.29 310.209 475.124 310.243 474.956 310.243H451.076C450.374 310.243 449.796 309.666 449.796 308.957C449.798 308.618 449.934 308.294 450.174 308.056C450.414 307.817 450.738 307.684 451.076 307.684H474.954C475.661 307.684 476.233 308.253 476.233 308.957ZM449.935 310.898H476.095V314.6H449.935V310.898ZM478.432 292.289C478.691 294.283 479.665 296.114 481.173 297.442C482.681 298.769 484.619 299.502 486.627 299.503C488.634 299.503 490.573 298.771 492.08 297.444C493.588 296.116 494.561 294.283 494.817 292.289H478.432ZM494.367 289.713L487.656 280.452H491.244C492.116 280.452 492.819 279.736 492.819 278.85C492.819 277.971 492.115 277.262 491.244 277.262H472.238C471.674 275.705 470.711 274.325 469.445 273.259C468.179 272.194 466.655 271.482 465.027 271.195V266.198C465.027 265.309 464.315 264.6 463.433 264.6L463.284 264.617L463.136 264.6C462.927 264.599 462.719 264.64 462.526 264.721C462.332 264.801 462.156 264.919 462.008 265.067C461.861 265.216 461.743 265.392 461.664 265.586C461.584 265.78 461.544 265.988 461.545 266.198V271.192C459.917 271.48 458.394 272.192 457.128 273.257C455.863 274.323 454.9 275.703 454.336 277.26H435.327C434.46 277.26 433.754 277.969 433.754 278.847C433.754 279.734 434.46 280.45 435.327 280.45H438.751L432.038 289.71H431.2V291.421H448.349V289.71H447.507L440.797 280.452H456.374C456.374 280.091 456.413 279.736 456.467 279.396C456.522 279.236 456.559 279.073 456.559 278.905C456.848 277.687 457.466 276.572 458.346 275.682C459.225 274.793 460.332 274.163 461.545 273.862V291.425H461.478C461.341 298.031 458.204 303.792 453.55 307.03H473.024C468.369 303.792 465.234 298.031 465.089 291.425H465.028V273.862C466.241 274.163 467.347 274.793 468.226 275.683C469.105 276.572 469.723 277.687 470.012 278.905C470.019 279.072 470.051 279.236 470.108 279.396C470.159 279.737 470.191 280.091 470.191 280.452H485.605L478.893 289.713H478.056V291.423H495.2V289.713H494.367ZM439.091 289.713H433.734L439.091 282.321V289.713ZM440.462 289.713V282.321L445.819 289.713H440.462ZM485.943 289.713H480.584L485.943 282.321V289.713ZM487.308 289.713V282.321L492.671 289.713H487.308ZM441.364 275.034C441.353 275.448 441.18 275.842 440.883 276.131C440.586 276.42 440.188 276.582 439.774 276.582C439.36 276.582 438.962 276.42 438.665 276.131C438.368 275.842 438.195 275.448 438.184 275.034C438.184 274.154 438.898 273.436 439.777 273.436C440.653 273.435 441.364 274.154 441.364 275.034ZM488.218 274.949C488.218 275.835 487.506 276.538 486.628 276.538C486.419 276.539 486.212 276.499 486.019 276.42C485.826 276.34 485.65 276.223 485.502 276.076C485.354 275.928 485.237 275.752 485.157 275.559C485.078 275.365 485.037 275.158 485.038 274.949C485.029 274.734 485.064 274.52 485.14 274.32C485.216 274.119 485.332 273.936 485.48 273.781C485.629 273.626 485.807 273.503 486.004 273.419C486.201 273.335 486.414 273.291 486.628 273.291C486.842 273.291 487.054 273.335 487.251 273.419C487.449 273.503 487.627 273.626 487.775 273.781C487.924 273.936 488.039 274.119 488.115 274.32C488.191 274.52 488.226 274.734 488.218 274.949Z" fill="#1E1D5C"/>
<path d="M102.7 289.6C102.7 317.269 80.2695 339.7 52.6 339.7C24.9305 339.7 2.5 317.269 2.5 289.6C2.5 261.931 24.9305 239.5 52.6 239.5C80.2695 239.5 102.7 261.931 102.7 289.6Z" fill="#FFFAE1" stroke="#1E1D5C" stroke-width="5"/>
<path d="M40.3688 310.395C39.3223 310.395 38.4492 310.039 37.7495 309.328C37.0498 308.616 36.6992 307.728 36.6977 306.664V272.536C36.6977 271.473 37.0483 270.586 37.7495 269.874C38.4507 269.163 39.3238 268.806 40.3688 268.805H64.8334C65.8784 268.805 66.7516 269.161 67.4528 269.874C68.154 270.588 68.5038 271.476 68.5023 272.538V306.664C68.5023 307.727 68.1525 308.615 67.4528 309.328C66.7531 310.041 65.8792 310.397 64.8312 310.395H40.3688ZM40.3688 308.085H64.8334C65.1818 308.085 65.5021 307.937 65.7944 307.641C66.0867 307.345 66.2321 307.019 66.2306 306.661V272.538C66.2306 272.183 66.0852 271.856 65.7944 271.559C65.5036 271.261 65.1825 271.114 64.8312 271.115H61.687V285.247L57.1435 282.49L52.6 285.247V271.115H40.3688C40.019 271.115 39.6979 271.263 39.4056 271.559C39.1133 271.855 38.9679 272.18 38.9694 272.536V306.664C38.9694 307.018 39.1148 307.344 39.4056 307.641C39.6964 307.938 40.0167 308.086 40.3666 308.085" fill="#1E1D5C"/>
<path d="M139.7 133.6C139.7 161.269 117.269 183.7 89.6 183.7C61.9305 183.7 39.5 161.269 39.5 133.6C39.5 105.931 61.9305 83.5 89.6 83.5C117.269 83.5 139.7 105.931 139.7 133.6Z" fill="#FFFAE1" stroke="#1E1D5C" stroke-width="5"/>
<path d="M69.4103 150.837L89.2894 130.975L86.3904 128.037L84.8994 129.506C84.7079 129.698 84.4803 129.85 84.2298 129.954C83.9793 130.058 83.7108 130.111 83.4396 130.111C83.1684 130.111 82.8998 130.058 82.6493 129.954C82.3988 129.85 82.1713 129.698 81.9797 129.506L80.5095 128.037C80.3175 127.846 80.1652 127.618 80.0613 127.368C79.9574 127.118 79.9039 126.849 79.9039 126.579C79.9039 126.308 79.9574 126.039 80.0613 125.789C80.1652 125.539 80.3175 125.311 80.5095 125.12L92.2298 113.41C92.4214 113.218 92.649 113.066 92.8995 112.962C93.15 112.858 93.4185 112.805 93.6897 112.805C93.9609 112.805 94.2294 112.858 94.4799 112.962C94.7304 113.066 94.958 113.218 95.1496 113.41L96.6198 114.879C97.4274 115.686 97.4274 116.989 96.6198 117.796L95.1496 119.223L98.09 122.182C98.2816 121.99 98.5091 121.838 98.7596 121.734C99.0101 121.63 99.2787 121.577 99.5499 121.577C99.8211 121.577 100.09 121.63 100.34 121.734C100.591 121.838 100.818 121.99 101.01 122.182C101.817 122.989 101.817 124.313 101.01 125.12L103.929 128.037L105.4 126.568C106.207 125.761 107.533 125.761 108.34 126.568L109.79 128.037C110.597 128.844 110.597 130.168 109.79 130.975L98.09 142.665C97.2824 143.471 95.9572 143.471 95.1496 142.665L93.7001 141.216C93.5034 141.025 93.3471 140.797 93.2404 140.545C93.1337 140.292 93.0787 140.021 93.0787 139.747C93.0787 139.473 93.1337 139.202 93.2404 138.95C93.3471 138.698 93.5034 138.469 93.7001 138.278L95.1496 136.809L92.2298 133.892L72.3301 153.775C72.1385 153.967 71.911 154.119 71.6604 154.222C71.4099 154.326 71.1414 154.38 70.8702 154.38C70.599 154.38 70.3305 154.326 70.08 154.222C69.8295 154.119 69.6019 153.967 69.4103 153.775C68.6028 152.968 68.6028 151.644 69.4103 150.837ZM106.062 148.189C107.161 148.189 108.214 148.625 108.991 149.401C109.767 150.177 110.204 151.229 110.204 152.326V154.395H89.4965V152.326C89.4965 151.229 89.9328 150.177 90.7095 149.401C91.4861 148.625 92.5395 148.189 93.6379 148.189H106.062Z" fill="#1E1D5C"/>
<path d="M303.7 52.6C303.7 80.2695 281.269 102.7 253.6 102.7C225.931 102.7 203.5 80.2695 203.5 52.6C203.5 24.9305 225.931 2.5 253.6 2.5C281.269 2.5 303.7 24.9305 303.7 52.6Z" fill="#FFFAE1" stroke="#1E1D5C" stroke-width="5"/>
<path d="M276.842 40.717V42.2024C276.842 42.3993 276.762 42.5882 276.621 42.7275C276.479 42.8668 276.288 42.945 276.088 42.945H273.825V44.0591C273.825 44.6743 273.318 45.1731 272.693 45.1731H235.73C235.105 45.1731 234.599 44.6743 234.599 44.0591V42.945H232.336C232.136 42.945 231.944 42.8668 231.802 42.7275C231.661 42.5882 231.581 42.3993 231.581 42.2024V40.717C231.581 40.57 231.626 40.4264 231.709 40.3043C231.792 40.1821 231.909 40.0869 232.047 40.0307L253.923 31.8611C254.108 31.7859 254.315 31.7859 254.5 31.8611L276.376 40.0307C276.514 40.0869 276.632 40.1821 276.715 40.3043C276.798 40.4264 276.842 40.57 276.842 40.717ZM274.579 68.9392H233.844C232.595 68.9392 231.581 69.9368 231.581 71.1673V72.6527C231.581 72.8497 231.661 73.0386 231.802 73.1779C231.944 73.3171 232.136 73.3954 232.336 73.3954H276.088C276.288 73.3954 276.479 73.3171 276.621 73.1779C276.762 73.0386 276.842 72.8497 276.842 72.6527V71.1673C276.842 69.9368 275.829 68.9392 274.579 68.9392ZM239.125 46.6585V64.4831H235.73C235.105 64.4831 234.599 64.9819 234.599 65.5971V67.4539H273.825V65.5971C273.825 64.9819 273.318 64.4831 272.693 64.4831H269.298V46.6585H263.264V64.4831H257.229V46.6585H251.194V64.4831H245.16V46.6585H239.125Z" fill="#1E1D5C"/>
<path d="M476.7 133.6C476.7 161.269 454.269 183.7 426.6 183.7C398.931 183.7 376.5 161.269 376.5 133.6C376.5 105.931 398.931 83.5 426.6 83.5C454.269 83.5 476.7 105.931 476.7 133.6Z" fill="#FFFAE1" stroke="#1E1D5C" stroke-width="5"/>
<path d="M435.374 142.753C435.743 142.467 436.077 142.133 436.744 141.466L445.07 133.138C445.272 132.938 445.179 132.591 444.912 132.496C443.608 132.045 442.425 131.3 441.453 130.321C440.473 129.349 439.729 128.166 439.277 126.862C439.183 126.595 438.835 126.502 438.636 126.704L430.306 135.03C429.639 135.697 429.304 136.031 429.018 136.399C428.677 136.836 428.388 137.303 428.151 137.801C427.951 138.221 427.802 138.672 427.503 139.568L427.116 140.725L426.502 142.566L425.927 144.291C425.856 144.508 425.846 144.74 425.898 144.961C425.951 145.183 426.064 145.386 426.225 145.547C426.386 145.708 426.589 145.821 426.81 145.873C427.032 145.926 427.264 145.916 427.48 145.844L429.205 145.27L431.046 144.655L432.204 144.268C433.1 143.97 433.55 143.822 433.971 143.62C434.469 143.382 434.938 143.093 435.374 142.753ZM447.679 130.531C448.532 129.678 449.011 128.52 449.011 127.313C449.011 126.105 448.531 124.948 447.678 124.094C446.824 123.241 445.666 122.761 444.459 122.761C443.252 122.762 442.094 123.241 441.24 124.095L440.975 124.364C440.847 124.49 440.752 124.644 440.698 124.815C440.643 124.985 440.632 125.167 440.664 125.343C440.706 125.568 440.78 125.9 440.916 126.294C441.19 127.083 441.707 128.118 442.682 129.092C443.656 130.066 444.691 130.584 445.48 130.857C445.875 130.994 446.206 131.068 446.431 131.11C446.607 131.14 446.788 131.128 446.958 131.074C447.128 131.019 447.283 130.925 447.409 130.799L447.679 130.531Z" fill="#1E1D5C"/>
<path fill-rule="evenodd" clip-rule="evenodd" d="M409.396 114.708C406.93 117.172 406.93 121.14 406.93 129.074V137.49C406.93 145.424 406.93 149.392 409.396 151.856C411.862 154.32 415.828 154.322 423.762 154.322H427.97C435.904 154.322 439.872 154.322 442.336 151.856C444.762 149.432 444.802 145.553 444.802 137.869L438.873 143.798C438.305 144.366 437.84 144.831 437.316 145.241C436.702 145.722 436.035 146.134 435.33 146.468C434.684 146.758 434.021 147.008 433.344 147.215L428.479 148.837C427.707 149.094 426.878 149.132 426.086 148.945C425.294 148.758 424.569 148.354 423.994 147.778C423.418 147.203 423.014 146.478 422.827 145.686C422.64 144.894 422.678 144.065 422.935 143.293L423.512 141.568L424.511 138.567L424.555 138.428C424.81 137.667 425.018 137.044 425.304 136.442C425.641 135.735 426.05 135.074 426.531 134.458C426.941 133.932 427.406 133.469 427.974 132.901L436.403 124.471L438.743 122.131L439.01 121.864C439.725 121.147 440.574 120.578 441.51 120.19C442.446 119.803 443.449 119.604 444.461 119.606C444.144 117.439 443.527 115.897 442.336 114.708C439.872 112.242 435.904 112.242 427.97 112.242H423.762C415.828 112.242 411.86 112.242 409.396 114.708ZM415.872 126.97C415.872 126.552 416.038 126.15 416.334 125.854C416.63 125.558 417.032 125.392 417.45 125.392H431.126C431.545 125.392 431.946 125.558 432.242 125.854C432.538 126.15 432.704 126.552 432.704 126.97C432.704 127.389 432.538 127.79 432.242 128.086C431.946 128.382 431.545 128.548 431.126 128.548H417.45C417.032 128.548 416.63 128.382 416.334 128.086C416.038 127.79 415.872 127.389 415.872 126.97ZM415.872 135.386C415.872 134.968 416.038 134.566 416.334 134.27C416.63 133.974 417.032 133.808 417.45 133.808H422.71C423.129 133.808 423.53 133.974 423.826 134.27C424.122 134.566 424.288 134.968 424.288 135.386C424.288 135.805 424.122 136.206 423.826 136.502C423.53 136.798 423.129 136.964 422.71 136.964H417.45C417.032 136.964 416.63 136.798 416.334 136.502C416.038 136.206 415.872 135.805 415.872 135.386ZM415.872 143.802C415.872 143.384 416.038 142.982 416.334 142.686C416.63 142.39 417.032 142.224 417.45 142.224H420.606C421.025 142.224 421.426 142.39 421.722 142.686C422.018 142.982 422.184 143.384 422.184 143.802C422.184 144.221 422.018 144.622 421.722 144.918C421.426 145.214 421.025 145.38 420.606 145.38H417.45C417.032 145.38 416.63 145.214 416.334 144.918C416.038 144.622 415.872 144.221 415.872 143.802Z" fill="#1E1D5C"/>
<path d="M25 405C25 399.477 29.4772 395 35 395H472C477.523 395 482 399.477 482 405V495H25V405Z" fill="#1E1D5C"/>
<path d="M170.176 430.409H176.256V450.693C176.256 452.568 175.834 454.197 174.991 455.58C174.158 456.962 172.998 458.027 171.511 458.776C170.025 459.524 168.296 459.898 166.327 459.898C164.575 459.898 162.984 459.59 161.554 458.974C160.134 458.349 159.007 457.402 158.173 456.134C157.34 454.855 156.928 453.25 156.938 451.318H163.06C163.079 452.085 163.235 452.743 163.528 453.293C163.831 453.832 164.243 454.249 164.764 454.543C165.295 454.827 165.92 454.969 166.639 454.969C167.397 454.969 168.036 454.808 168.557 454.486C169.087 454.154 169.49 453.671 169.764 453.037C170.039 452.402 170.176 451.621 170.176 450.693V430.409ZM194.819 450.21V437.682H200.87V459.5H195.06V455.537H194.833C194.341 456.815 193.521 457.843 192.376 458.619C191.239 459.396 189.852 459.784 188.214 459.784C186.755 459.784 185.472 459.453 184.364 458.79C183.256 458.127 182.39 457.185 181.765 455.963C181.149 454.741 180.837 453.278 180.827 451.574V437.682H186.878V450.494C186.888 451.782 187.234 452.8 187.915 453.548C188.597 454.296 189.511 454.67 190.657 454.67C191.386 454.67 192.068 454.505 192.702 454.173C193.337 453.832 193.848 453.33 194.236 452.668C194.634 452.005 194.828 451.186 194.819 450.21ZM205.31 459.5V437.682H211.177V441.489H211.404C211.802 440.134 212.469 439.112 213.407 438.42C214.344 437.72 215.424 437.369 216.645 437.369C216.948 437.369 217.275 437.388 217.625 437.426C217.976 437.464 218.284 437.516 218.549 437.582V442.952C218.265 442.866 217.872 442.791 217.37 442.724C216.868 442.658 216.409 442.625 215.992 442.625C215.102 442.625 214.306 442.819 213.606 443.207C212.914 443.586 212.365 444.116 211.958 444.798C211.56 445.48 211.361 446.266 211.361 447.156V459.5H205.31ZM221.277 459.5V437.682H227.328V459.5H221.277ZM224.317 434.869C223.417 434.869 222.646 434.571 222.002 433.974C221.367 433.368 221.05 432.644 221.05 431.801C221.05 430.968 221.367 430.253 222.002 429.656C222.646 429.05 223.417 428.747 224.317 428.747C225.217 428.747 225.984 429.05 226.618 429.656C227.262 430.253 227.584 430.968 227.584 431.801C227.584 432.644 227.262 433.368 226.618 433.974C225.984 434.571 225.217 434.869 224.317 434.869ZM236.904 459.5H230.313L240.355 430.409H248.281L258.31 459.5H251.719L244.432 437.057H244.205L236.904 459.5ZM236.492 448.065H252.06V452.866H236.492V448.065ZM278.943 443.903L273.403 444.244C273.309 443.771 273.105 443.345 272.793 442.966C272.48 442.578 272.068 442.27 271.557 442.043C271.055 441.806 270.454 441.688 269.753 441.688C268.815 441.688 268.025 441.886 267.381 442.284C266.737 442.672 266.415 443.193 266.415 443.847C266.415 444.367 266.623 444.808 267.04 445.168C267.456 445.527 268.171 445.816 269.185 446.034L273.134 446.83C275.255 447.265 276.836 447.966 277.878 448.932C278.92 449.898 279.44 451.167 279.44 452.739C279.44 454.169 279.019 455.423 278.176 456.503C277.343 457.582 276.197 458.425 274.739 459.031C273.29 459.628 271.618 459.926 269.724 459.926C266.836 459.926 264.535 459.325 262.821 458.122C261.116 456.91 260.117 455.262 259.824 453.179L265.776 452.866C265.955 453.747 266.391 454.42 267.082 454.884C267.774 455.338 268.659 455.565 269.739 455.565C270.799 455.565 271.652 455.362 272.295 454.955C272.949 454.538 273.28 454.003 273.29 453.349C273.28 452.8 273.048 452.35 272.594 452C272.139 451.64 271.438 451.366 270.491 451.176L266.713 450.423C264.582 449.997 262.996 449.259 261.955 448.207C260.922 447.156 260.406 445.816 260.406 444.188C260.406 442.786 260.785 441.579 261.543 440.565C262.31 439.552 263.384 438.771 264.767 438.222C266.159 437.672 267.788 437.398 269.653 437.398C272.409 437.398 274.578 437.98 276.159 439.145C277.75 440.31 278.678 441.896 278.943 443.903ZM301.004 443.903L295.464 444.244C295.37 443.771 295.166 443.345 294.854 442.966C294.541 442.578 294.129 442.27 293.618 442.043C293.116 441.806 292.515 441.688 291.814 441.688C290.876 441.688 290.086 441.886 289.442 442.284C288.798 442.672 288.476 443.193 288.476 443.847C288.476 444.367 288.684 444.808 289.101 445.168C289.517 445.527 290.232 445.816 291.246 446.034L295.194 446.83C297.316 447.265 298.897 447.966 299.939 448.932C300.98 449.898 301.501 451.167 301.501 452.739C301.501 454.169 301.08 455.423 300.237 456.503C299.404 457.582 298.258 458.425 296.8 459.031C295.351 459.628 293.679 459.926 291.785 459.926C288.897 459.926 286.596 459.325 284.882 458.122C283.177 456.91 282.178 455.262 281.885 453.179L287.837 452.866C288.016 453.747 288.452 454.42 289.143 454.884C289.835 455.338 290.72 455.565 291.8 455.565C292.86 455.565 293.712 455.362 294.356 454.955C295.01 454.538 295.341 454.003 295.351 453.349C295.341 452.8 295.109 452.35 294.655 452C294.2 451.64 293.499 451.366 292.552 451.176L288.774 450.423C286.643 449.997 285.057 449.259 284.015 448.207C282.983 447.156 282.467 445.816 282.467 444.188C282.467 442.786 282.846 441.579 283.604 440.565C284.371 439.552 285.445 438.771 286.828 438.222C288.22 437.672 289.849 437.398 291.714 437.398C294.47 437.398 296.639 437.98 298.22 439.145C299.811 440.31 300.739 441.896 301.004 443.903ZM304.912 459.5V437.682H310.963V459.5H304.912ZM307.951 434.869C307.052 434.869 306.28 434.571 305.636 433.974C305.002 433.368 304.684 432.644 304.684 431.801C304.684 430.968 305.002 430.253 305.636 429.656C306.28 429.05 307.052 428.747 307.951 428.747C308.851 428.747 309.618 429.05 310.253 429.656C310.896 430.253 311.218 430.968 311.218 431.801C311.218 432.644 310.896 433.368 310.253 433.974C309.618 434.571 308.851 434.869 307.951 434.869ZM333.563 443.903L328.024 444.244C327.929 443.771 327.725 443.345 327.413 442.966C327.1 442.578 326.688 442.27 326.177 442.043C325.675 441.806 325.074 441.688 324.373 441.688C323.436 441.688 322.645 441.886 322.001 442.284C321.357 442.672 321.035 443.193 321.035 443.847C321.035 444.367 321.243 444.808 321.66 445.168C322.077 445.527 322.792 445.816 323.805 446.034L327.754 446.83C329.875 447.265 331.456 447.966 332.498 448.932C333.54 449.898 334.061 451.167 334.061 452.739C334.061 454.169 333.639 455.423 332.796 456.503C331.963 457.582 330.817 458.425 329.359 459.031C327.91 459.628 326.239 459.926 324.345 459.926C321.456 459.926 319.155 459.325 317.441 458.122C315.737 456.91 314.738 455.262 314.444 453.179L320.396 452.866C320.576 453.747 321.011 454.42 321.703 454.884C322.394 455.338 323.279 455.565 324.359 455.565C325.42 455.565 326.272 455.362 326.916 454.955C327.569 454.538 327.901 454.003 327.91 453.349C327.901 452.8 327.669 452.35 327.214 452C326.76 451.64 326.059 451.366 325.112 451.176L321.333 450.423C319.203 449.997 317.617 449.259 316.575 448.207C315.543 447.156 315.027 445.816 315.027 444.188C315.027 442.786 315.405 441.579 316.163 440.565C316.93 439.552 318.005 438.771 319.387 438.222C320.779 437.672 322.408 437.398 324.274 437.398C327.029 437.398 329.198 437.98 330.779 439.145C332.37 440.31 333.298 441.896 333.563 443.903ZM349.076 437.682V442.227H335.937V437.682H349.076ZM338.92 432.455H344.971V452.795C344.971 453.354 345.056 453.79 345.227 454.102C345.397 454.405 345.634 454.618 345.937 454.741C346.249 454.865 346.609 454.926 347.016 454.926C347.301 454.926 347.585 454.902 347.869 454.855C348.153 454.798 348.371 454.756 348.522 454.727L349.474 459.23C349.171 459.325 348.745 459.434 348.195 459.557C347.646 459.689 346.979 459.77 346.193 459.798C344.734 459.855 343.456 459.661 342.357 459.216C341.268 458.771 340.421 458.08 339.815 457.142C339.209 456.205 338.91 455.021 338.92 453.591V432.455Z" fill="white"/>
<path d="M351.7 250.1C351.7 301.794 309.794 343.7 258.1 343.7C206.406 343.7 164.5 301.794 164.5 250.1C164.5 198.406 206.406 156.5 258.1 156.5C309.794 156.5 351.7 198.406 351.7 250.1Z" fill="#1E1D5C" stroke="#1E1D5C" stroke-width="5"/>
<path fill-rule="evenodd" clip-rule="evenodd" d="M273.635 278.22C266.546 283.213 257.902 286.145 248.573 286.145C224.508 286.145 205 266.637 205 242.573C205 218.508 224.508 199 248.573 199C272.637 199 292.145 218.508 292.145 242.573C292.145 252.938 288.526 262.458 282.482 269.937C283.16 270.262 283.792 270.711 284.345 271.284L309.047 296.864C311.541 299.446 311.469 303.561 308.887 306.055C306.305 308.549 302.19 308.477 299.696 305.894L274.993 280.314C274.391 279.691 273.939 278.978 273.635 278.22ZM284.418 242.787C284.418 262.465 268.466 278.418 248.787 278.418C229.109 278.418 213.156 262.465 213.156 242.787C213.156 223.109 229.109 207.156 248.787 207.156C268.466 207.156 284.418 223.109 284.418 242.787ZM261.671 256.213L259.192 258.692L260.597 260.097L257.948 262.746L248.581 253.379L251.23 250.73L252.635 252.135L261.397 243.373L259.992 241.967L262.641 239.318L272.008 248.686L269.359 251.335L267.954 249.93L265.646 252.238L274.544 261.137L270.571 265.11L261.672 256.211L261.671 256.213ZM235.089 259.377V225.655H251.95V235.023H263.645L266.937 238.314V230.648L256.41 220.035H235.089C231.991 220.035 229.469 222.557 229.469 225.655V264.998H254.902L249.282 259.377H235.089ZM238.836 229.402V235.023H248.203V229.402H238.836ZM257.778 238.769H238.836V244.39H252.158L257.778 238.769ZM238.836 253.757H242.791L248.411 248.137H238.836V253.757Z" fill="white"/>
</svg>
