<svg width="111" height="23" viewBox="0 0 111 23" fill="none" xmlns="http://www.w3.org/2000/svg">
<path d="M41.7158 18.9073C42.5654 18.1545 43.3823 17.4008 44.3301 16.5453C44.4936 16.648 44.8207 16.9221 45.1797 17.161C47.8267 19.0092 50.6053 19.5231 53.6121 18.1879C54.4944 17.8111 55.0177 17.1268 55.0505 16.0657C55.0832 14.9703 54.3644 14.3888 53.6121 14.0462C52.0437 13.3276 50.3763 12.7795 48.7752 12.198C47.076 11.6165 45.4741 10.9313 44.1992 9.56187C42.4346 7.67942 42.5327 4.46178 44.1338 2.54421C46.1602 0.147901 48.8725 -0.193817 51.7493 0.0793864C53.9719 0.319189 55.8346 1.34606 57.5339 2.78402C58.0572 3.22936 58.1872 3.57108 57.5993 4.08495C57.0441 4.56455 56.5534 5.11181 56.0628 5.65993C55.7684 6.00251 55.5395 6.07103 55.1805 5.69419C53.9056 4.29049 52.2718 3.70897 50.5391 3.6062C49.4932 3.57194 48.3819 3.88026 47.4342 4.35901C46.192 4.94053 46.1593 6.78958 47.3687 7.40536C48.8398 8.15816 50.4409 8.70629 52.0102 9.28781C53.8075 9.93784 55.6384 10.5545 57.076 11.9924C59.2985 14.2175 59.1677 18.0166 56.9451 20.1397C54.7552 22.2277 52.1083 22.8101 49.1661 22.4675C46.6491 22.1935 44.492 21.2009 42.4984 19.5925C42.3675 19.4897 42.2694 19.3869 42.1713 19.2841C41.9775 19.2833 41.9121 19.1471 41.7158 18.9073Z" fill="#FD8C14"/>
<path d="M16.3547 16.4767C17.2043 17.3323 18.0212 18.1536 18.8389 18.9758C15.1134 23.3231 8.60918 23.9731 4.16403 20.1739C-1.22886 15.6211 -1.19697 7.91918 3.18276 3.36636C7.5952 -1.28924 14.7854 -1.04944 18.8381 3.67467C17.9885 4.496 17.1716 5.31732 16.2557 6.17376C14.8173 4.63303 12.8891 3.60616 10.6339 3.70893C8.70567 3.8117 6.94102 4.59877 5.63348 6.07099C2.85567 9.28862 3.18194 13.4304 5.17555 15.998C7.52978 19.0786 12.1385 20.4472 16.3547 16.4767Z" fill="#1E1D5C"/>
<path d="M84.761 22.262C83.6824 22.262 82.6038 22.262 81.4598 22.262C81.4271 21.7481 81.3944 21.2693 81.329 20.6193C80.2177 21.6462 79.1064 22.2962 77.7334 22.5703C76.0996 22.8443 74.6285 22.4332 73.2883 21.6119C70.8695 20.0712 69.7909 17.7785 69.7909 14.8341C69.7582 12.0618 70.6732 9.73398 72.7977 8.19325C75.2819 6.37931 78.1905 6.17377 80.9029 8.36453C81.0011 8.46731 81.1319 8.53582 81.3282 8.74137C81.3936 8.1941 81.4263 7.74876 81.4917 7.26915C82.603 7.26915 83.6489 7.26915 84.7929 7.26915C84.761 12.1637 84.761 17.161 84.761 22.262ZM77.2436 18.873C79.4989 19.1128 81.4271 16.7508 81.4271 14.6285C81.3944 12.4378 79.4989 10.3498 77.3745 10.384C75.021 10.4183 73.2237 12.5405 73.2237 14.6285C73.191 16.8193 75.1192 19.0786 77.2436 18.873Z" fill="#FD8C14"/>
<path d="M24.0345 8.39797C25.93 6.89149 27.7928 6.41275 29.8518 6.92575C31.8781 7.43961 33.5773 9.28781 33.8063 11.4786C33.9699 13.2583 33.9699 15.073 34.0026 16.8527C34.0353 18.5981 34.0026 20.3444 34.0026 22.0898C34.0026 22.1584 33.9699 22.1926 33.9371 22.2954C32.8586 22.2954 31.78 22.2954 30.5379 22.2954C30.5379 21.9871 30.5379 21.6796 30.5379 21.337C30.5379 18.975 30.5706 16.6129 30.5379 14.2517C30.5052 13.2591 30.4724 12.2322 29.7864 11.4109C28.7405 10.1442 27.6619 10.0072 26.1262 10.4868C24.9495 10.8637 24.0672 12.2665 24.0672 13.6359C24.0672 16.1693 24.0672 18.736 24.0672 21.2694C24.0672 21.6119 24.0672 21.9537 24.0672 22.3305C22.8251 22.3305 21.6811 22.3305 20.4717 22.3305C20.4717 15.0739 20.4717 7.81645 20.4717 0.491333C21.6484 0.491333 22.7924 0.491333 24.0672 0.491333C24.0345 3.02382 24.0345 5.59142 24.0345 8.39797Z" fill="#1E1D5C"/>
<path d="M97.5732 20.037C98.1612 19.2499 98.7172 18.4963 99.3379 17.812C99.436 17.7092 99.8604 17.7435 100.057 17.8805C101.397 18.8046 102.802 19.4212 104.436 19.2499C104.862 19.2157 105.351 19.1472 105.679 18.9416C106.038 18.7018 106.528 18.2573 106.528 17.9147C106.528 17.5037 106.136 16.8879 105.777 16.7508C104.535 16.2036 103.227 15.9295 101.986 15.3814C101.005 14.9703 99.9267 14.5258 99.1425 13.8064C97.5414 12.3685 97.8349 9.3221 99.5677 8.08969C102.019 6.34427 104.633 6.37852 107.314 7.50817C108.131 7.85074 108.882 8.36375 109.766 8.87761C109.112 9.73319 108.589 10.3841 108.099 11.0684C107.772 11.5137 107.511 11.3082 107.119 11.0684C105.713 10.1785 104.243 9.69893 102.608 10.2813C102.248 10.4183 101.987 10.8628 101.66 11.1711C101.955 11.5137 102.215 11.9925 102.608 12.1295C104.046 12.6434 105.549 12.9851 106.955 13.4989C109.7 14.4916 110.648 16.8879 109.831 19.3527C109.178 21.3037 107.478 22.0907 105.647 22.4676C103.163 22.9814 100.876 22.3991 98.7516 20.9953C98.3574 20.7555 97.9976 20.413 97.5732 20.037Z" fill="#FD8C14"/>
<path d="M89.075 3.09229C90.3499 3.09229 91.4612 3.09229 92.6706 3.09229C92.6706 4.42747 92.6706 5.7284 92.6706 7.09699C93.88 7.09699 94.9913 7.09699 96.168 7.09699C96.168 8.3294 96.168 9.45904 96.168 10.7257C95.0567 10.7257 93.9127 10.7257 92.7033 10.7257C92.7033 13.1563 92.6379 15.4498 92.736 17.7091C92.8014 18.9073 93.88 19.386 95.3502 19.0443C95.6119 18.9758 95.8409 18.9415 96.2326 18.8387C96.2326 19.9341 96.2653 20.9267 96.1999 21.8851C96.1999 22.0564 95.9709 22.3647 95.8074 22.399C94.0754 22.7073 92.3754 22.8443 90.7743 21.8517C89.9574 21.3378 89.4994 20.585 89.4013 19.6952C89.1723 17.6757 89.1069 15.6562 89.0088 13.6025C88.9761 12.6784 89.0088 11.7543 89.0088 10.7274C88.0938 10.7274 87.2769 10.7274 86.3945 10.7274C86.3945 9.49501 86.3945 8.36537 86.3945 7.20147C86.9171 7.13296 87.4404 7.06444 87.9629 6.96167C88.7144 6.82464 89.0742 6.34589 89.0415 5.52371C89.0423 4.77005 89.075 3.94872 89.075 3.09229Z" fill="#FD8C14"/>
<path d="M61.4238 10.7256C60.4761 10.7256 59.6592 10.7256 58.8096 10.7256C58.8096 9.52748 58.8096 8.39784 58.8096 7.19968C59.3002 7.16543 59.7573 7.16543 60.2152 7.09691C61.0976 6.92562 61.5228 6.41262 61.4247 5.42001C61.3592 4.70145 61.4247 3.94779 61.4247 3.12646C62.6341 3.12646 63.7781 3.12646 65.0202 3.12646C65.0202 4.39314 65.0202 5.69407 65.0202 7.13117C66.2623 7.13117 67.3736 7.13117 68.583 7.13117C68.583 8.39784 68.583 9.52748 68.583 10.7599C67.4063 10.7599 66.295 10.7599 65.0856 10.7599C65.0856 12.5053 65.0856 14.1146 65.0856 15.7572C65.0856 16.2026 65.0856 16.6128 65.0856 17.0581C65.0856 18.8036 65.9679 19.4545 67.7326 19.0434C67.9288 19.0091 68.1251 18.9406 68.3205 18.9063C68.3859 18.9063 68.4841 18.9748 68.6476 19.0091C68.6476 19.9332 68.6803 20.8573 68.6149 21.7814C68.5822 22.0212 68.2878 22.3972 68.0597 22.4657C66.5559 22.774 65.0856 22.774 63.6472 22.1231C62.2416 21.5073 61.719 20.2407 61.6209 18.837C61.4901 16.5092 61.4901 14.2156 61.4247 11.8878C61.4238 11.5136 61.4238 11.2052 61.4238 10.7256Z" fill="#FD8C14"/>
<path d="M40.246 7.1665C40.246 12.2323 40.246 17.1962 40.246 22.2278C39.1347 22.2278 38.0234 22.2278 36.8467 22.2278C36.8467 17.2305 36.8467 12.2323 36.8467 7.1665C37.958 7.1665 39.0693 7.1665 40.246 7.1665Z" fill="#1E1D5C"/>
<path d="M40.6378 2.23679C40.6378 3.64049 39.8209 4.42756 38.4807 4.42756C37.4348 4.42756 36.3889 3.26366 36.4216 2.20253C36.4544 1.03863 37.5002 0.0460205 38.6442 0.0460205C39.7882 0.0460205 40.6378 0.970117 40.6378 2.23679Z" fill="#1E1D5C"/>
</svg>
