<svg width="338" height="50" viewBox="0 0 338 50" fill="none" xmlns="http://www.w3.org/2000/svg">
<path d="M23.2372 35V14.6364H30.4957C32.08 14.6364 33.3925 14.9247 34.4332 15.5014C35.474 16.0781 36.2528 16.8669 36.7699 17.8679C37.2869 18.8622 37.5455 19.9825 37.5455 21.2287C37.5455 22.4815 37.2836 23.6084 36.7599 24.6094C36.2429 25.6037 35.4607 26.3925 34.4134 26.9759C33.3726 27.5526 32.0634 27.8409 30.4858 27.8409H25.4943V25.2358H30.2074C31.2083 25.2358 32.0204 25.0634 32.6435 24.7188C33.2666 24.3674 33.724 23.8902 34.0156 23.2869C34.3073 22.6837 34.4531 21.9976 34.4531 21.2287C34.4531 20.4598 34.3073 19.777 34.0156 19.1804C33.724 18.5838 33.2633 18.1165 32.6335 17.7784C32.0104 17.4403 31.1884 17.2713 30.1676 17.2713H26.3097V35H23.2372ZM47.1506 35.3082C45.7188 35.3082 44.4692 34.9801 43.402 34.3239C42.3348 33.6676 41.5062 32.7495 40.9162 31.5696C40.3262 30.3897 40.0312 29.0109 40.0312 27.4332C40.0312 25.849 40.3262 24.4635 40.9162 23.277C41.5062 22.0904 42.3348 21.169 43.402 20.5128C44.4692 19.8565 45.7188 19.5284 47.1506 19.5284C48.5824 19.5284 49.8319 19.8565 50.8991 20.5128C51.9664 21.169 52.795 22.0904 53.3849 23.277C53.9749 24.4635 54.2699 25.849 54.2699 27.4332C54.2699 29.0109 53.9749 30.3897 53.3849 31.5696C52.795 32.7495 51.9664 33.6676 50.8991 34.3239C49.8319 34.9801 48.5824 35.3082 47.1506 35.3082ZM47.1605 32.8125C48.0885 32.8125 48.8575 32.5672 49.4673 32.0767C50.0772 31.5862 50.5279 30.9332 50.8196 30.1179C51.1179 29.3026 51.267 28.4044 51.267 27.4233C51.267 26.4489 51.1179 25.554 50.8196 24.7386C50.5279 23.9167 50.0772 23.2571 49.4673 22.7599C48.8575 22.2628 48.0885 22.0142 47.1605 22.0142C46.2259 22.0142 45.4503 22.2628 44.8338 22.7599C44.224 23.2571 43.7699 23.9167 43.4716 24.7386C43.1799 25.554 43.0341 26.4489 43.0341 27.4233C43.0341 28.4044 43.1799 29.3026 43.4716 30.1179C43.7699 30.9332 44.224 31.5862 44.8338 32.0767C45.4503 32.5672 46.2259 32.8125 47.1605 32.8125ZM60.4347 35L55.9403 19.7273H59.0128L62.0057 30.9432H62.1548L65.1577 19.7273H68.2301L71.2131 30.8935H71.3622L74.3352 19.7273H77.4077L72.9233 35H69.8906L66.7884 23.973H66.5597L63.4574 35H60.4347ZM86.3466 35.3082C84.8419 35.3082 83.5459 34.9867 82.4588 34.3438C81.3783 33.6941 80.5431 32.7827 79.9531 31.6094C79.3698 30.4295 79.0781 29.0473 79.0781 27.4631C79.0781 25.8987 79.3698 24.5199 79.9531 23.3267C80.5431 22.1335 81.3651 21.2022 82.419 20.5327C83.4796 19.8632 84.7192 19.5284 86.1378 19.5284C86.9995 19.5284 87.8348 19.6709 88.6435 19.956C89.4522 20.241 90.178 20.6884 90.821 21.2983C91.464 21.9081 91.9711 22.7003 92.3423 23.6747C92.7135 24.6425 92.8991 25.8191 92.8991 27.2045V28.2585H80.7585V26.0312H89.9858C89.9858 25.2491 89.8267 24.5563 89.5085 23.9531C89.1903 23.3433 88.7429 22.8627 88.1662 22.5114C87.5961 22.16 86.9266 21.9844 86.1577 21.9844C85.3224 21.9844 84.5933 22.1899 83.9702 22.6009C83.3537 23.0052 82.8764 23.5355 82.5384 24.1918C82.2069 24.8414 82.0412 25.5473 82.0412 26.3097V28.0497C82.0412 29.0705 82.2202 29.9389 82.5781 30.6548C82.9427 31.3707 83.4498 31.9176 84.0994 32.2955C84.7491 32.6667 85.508 32.8523 86.3764 32.8523C86.9399 32.8523 87.4536 32.7727 87.9176 32.6136C88.3816 32.4479 88.7827 32.2027 89.1207 31.8778C89.4588 31.553 89.7173 31.152 89.8963 30.6747L92.7102 31.1818C92.4848 32.0104 92.0805 32.7363 91.4972 33.3594C90.9205 33.9759 90.1946 34.4564 89.3196 34.8011C88.4512 35.1392 87.4602 35.3082 86.3466 35.3082ZM96.1978 35V19.7273H99.0714V22.1534H99.2305C99.5089 21.3314 99.9994 20.6851 100.702 20.2145C101.411 19.7372 102.213 19.4986 103.108 19.4986C103.294 19.4986 103.513 19.5052 103.765 19.5185C104.023 19.5317 104.225 19.5483 104.371 19.5682V22.4119C104.252 22.3788 104.04 22.3423 103.735 22.3026C103.43 22.2562 103.125 22.233 102.82 22.233C102.117 22.233 101.491 22.3821 100.941 22.6804C100.397 22.9721 99.9663 23.3797 99.6481 23.9034C99.3299 24.4205 99.1708 25.0104 99.1708 25.6733V35H96.1978ZM112.979 35.3082C111.475 35.3082 110.179 34.9867 109.092 34.3438C108.011 33.6941 107.176 32.7827 106.586 31.6094C106.003 30.4295 105.711 29.0473 105.711 27.4631C105.711 25.8987 106.003 24.5199 106.586 23.3267C107.176 22.1335 107.998 21.2022 109.052 20.5327C110.112 19.8632 111.352 19.5284 112.771 19.5284C113.632 19.5284 114.468 19.6709 115.276 19.956C116.085 20.241 116.811 20.6884 117.454 21.2983C118.097 21.9081 118.604 22.7003 118.975 23.6747C119.346 24.6425 119.532 25.8191 119.532 27.2045V28.2585H107.391V26.0312H116.619C116.619 25.2491 116.46 24.5563 116.141 23.9531C115.823 23.3433 115.376 22.8627 114.799 22.5114C114.229 22.16 113.559 21.9844 112.79 21.9844C111.955 21.9844 111.226 22.1899 110.603 22.6009C109.987 23.0052 109.509 23.5355 109.171 24.1918C108.84 24.8414 108.674 25.5473 108.674 26.3097V28.0497C108.674 29.0705 108.853 29.9389 109.211 30.6548C109.576 31.3707 110.083 31.9176 110.732 32.2955C111.382 32.6667 112.141 32.8523 113.009 32.8523C113.573 32.8523 114.086 32.7727 114.55 32.6136C115.014 32.4479 115.415 32.2027 115.754 31.8778C116.092 31.553 116.35 31.152 116.529 30.6747L119.343 31.1818C119.118 32.0104 118.713 32.7363 118.13 33.3594C117.553 33.9759 116.827 34.4564 115.952 34.8011C115.084 35.1392 114.093 35.3082 112.979 35.3082ZM128.548 35.2983C127.315 35.2983 126.215 34.9834 125.247 34.3537C124.286 33.7173 123.53 32.8125 122.98 31.6392C122.436 30.4593 122.164 29.044 122.164 27.3935C122.164 25.7429 122.44 24.331 122.99 23.1577C123.547 21.9844 124.309 21.0862 125.277 20.4631C126.244 19.84 127.342 19.5284 128.568 19.5284C129.516 19.5284 130.278 19.6875 130.855 20.0057C131.438 20.3172 131.889 20.6818 132.207 21.0994C132.532 21.517 132.784 21.8849 132.963 22.2031H133.142V14.6364H136.115V35H133.211V32.6236H132.963C132.784 32.9484 132.525 33.3196 132.187 33.7372C131.856 34.1548 131.398 34.5194 130.815 34.831C130.232 35.1425 129.476 35.2983 128.548 35.2983ZM129.204 32.7628C130.059 32.7628 130.782 32.5374 131.372 32.0866C131.968 31.6293 132.419 30.9962 132.724 30.1875C133.036 29.3788 133.191 28.4375 133.191 27.3636C133.191 26.303 133.039 25.375 132.734 24.5795C132.429 23.7841 131.982 23.1643 131.392 22.7202C130.802 22.276 130.073 22.054 129.204 22.054C128.309 22.054 127.564 22.286 126.967 22.75C126.37 23.214 125.92 23.8471 125.615 24.6491C125.316 25.4512 125.167 26.3561 125.167 27.3636C125.167 28.3845 125.32 29.3026 125.625 30.1179C125.93 30.9332 126.38 31.5795 126.977 32.0568C127.58 32.5275 128.323 32.7628 129.204 32.7628ZM148.007 35V14.6364H155.464C156.909 14.6364 158.106 14.875 159.054 15.3523C160.002 15.8229 160.711 16.4626 161.181 17.2713C161.652 18.0734 161.887 18.9782 161.887 19.9858C161.887 20.8343 161.732 21.5502 161.42 22.1335C161.109 22.7102 160.691 23.1742 160.167 23.5256C159.65 23.8703 159.08 24.1222 158.457 24.2812V24.4801C159.133 24.5133 159.793 24.732 160.436 25.1364C161.085 25.5341 161.622 26.1009 162.047 26.8366C162.471 27.5724 162.683 28.4673 162.683 29.5213C162.683 30.562 162.438 31.4967 161.947 32.3253C161.463 33.1473 160.714 33.8002 159.7 34.2841C158.686 34.7614 157.39 35 155.812 35H148.007ZM151.079 32.3651H155.514C156.985 32.3651 158.039 32.08 158.676 31.5099C159.312 30.9399 159.63 30.2273 159.63 29.3722C159.63 28.7292 159.468 28.1392 159.143 27.6023C158.818 27.0653 158.354 26.6378 157.751 26.3196C157.154 26.0014 156.445 25.8423 155.623 25.8423H151.079V32.3651ZM151.079 23.446H155.196C155.885 23.446 156.505 23.3134 157.055 23.0483C157.612 22.7831 158.053 22.4119 158.377 21.9347C158.709 21.4508 158.875 20.8807 158.875 20.2244C158.875 19.3826 158.58 18.6766 157.99 18.1065C157.4 17.5365 156.495 17.2514 155.275 17.2514H151.079V23.446ZM167.968 40.7273C167.524 40.7273 167.119 40.6908 166.755 40.6179C166.39 40.5516 166.118 40.4787 165.939 40.3991L166.655 37.9631C167.199 38.1089 167.683 38.1719 168.107 38.152C168.531 38.1321 168.906 37.973 169.23 37.6747C169.562 37.3764 169.854 36.8892 170.105 36.2131L170.473 35.1989L164.885 19.7273H168.067L171.935 31.5795H172.094L175.962 19.7273H179.154L172.86 37.0384C172.568 37.8338 172.197 38.5066 171.746 39.0568C171.295 39.6136 170.758 40.0313 170.135 40.3097C169.512 40.5881 168.79 40.7273 167.968 40.7273Z" fill="#7A7A7A"/>
<path d="M235.628 34.3534C236.639 33.4236 237.611 32.4927 238.738 31.4359C238.933 31.5628 239.322 31.9014 239.749 32.1965C242.898 34.4793 246.203 35.114 249.781 33.4648C250.83 32.9994 251.453 32.1542 251.492 30.8435C251.531 29.4906 250.676 28.7723 249.781 28.3492C247.915 27.4616 245.931 26.7846 244.026 26.0664C242.005 25.3481 240.099 24.5018 238.582 22.8104C236.483 20.4852 236.6 16.511 238.505 14.1425C240.915 11.1827 244.142 10.7606 247.564 11.0981C250.209 11.3942 252.425 12.6626 254.446 14.4387C255.069 14.9888 255.224 15.4108 254.524 16.0455C253.864 16.6379 253.28 17.3139 252.696 17.9909C252.346 18.414 252.074 18.4986 251.646 18.0332C250.13 16.2994 248.186 15.5811 246.125 15.4542C244.88 15.4119 243.558 15.7927 242.431 16.384C240.953 17.1023 240.914 19.3862 242.353 20.1467C244.103 21.0766 246.008 21.7536 247.875 22.4719C250.013 23.2747 252.191 24.0364 253.901 25.8125C256.546 28.5607 256.39 33.2533 253.746 35.8756C251.141 38.4546 247.992 39.1739 244.491 38.7508C241.497 38.4123 238.931 37.1863 236.559 35.1997C236.403 35.0727 236.287 34.9458 236.17 34.8189C235.939 34.8178 235.861 34.6496 235.628 34.3534Z" fill="#FD8C14"/>
<path d="M205.457 31.3517C206.467 32.4085 207.439 33.4229 208.412 34.4384C203.98 39.808 196.242 40.6109 190.954 35.9184C184.538 30.2949 184.576 20.7818 189.786 15.1584C195.036 9.40805 203.59 9.70424 208.411 15.5392C207.4 16.5537 206.429 17.5682 205.339 18.626C203.628 16.723 201.334 15.4546 198.651 15.5816C196.357 15.7085 194.258 16.6806 192.702 18.4991C189.397 22.4733 189.785 27.589 192.157 30.7604C194.958 34.5654 200.441 36.2558 205.457 31.3517Z" fill="#1E1D5C"/>
<path d="M286.838 38.4969C285.555 38.4969 284.271 38.4969 282.91 38.4969C282.872 37.8622 282.833 37.2708 282.755 36.4679C281.433 37.7363 280.111 38.5392 278.477 38.8777C276.534 39.2162 274.784 38.7084 273.189 37.694C270.311 35.7909 269.028 32.9591 269.028 29.3223C268.989 25.8981 270.078 23.0229 272.605 21.1199C275.561 18.8794 279.021 18.6255 282.248 21.3314C282.365 21.4584 282.52 21.543 282.754 21.7969C282.832 21.1209 282.871 20.5709 282.948 19.9785C284.27 19.9785 285.515 19.9785 286.876 19.9785C286.838 26.024 286.838 32.1964 286.838 38.4969ZM277.895 34.311C280.578 34.6072 282.872 31.6897 282.872 29.0684C282.833 26.3625 280.578 23.7835 278.05 23.8258C275.25 23.8681 273.112 26.4894 273.112 29.0684C273.073 31.7743 275.367 34.5649 277.895 34.311Z" fill="#FD8C14"/>
<path d="M214.593 21.3726C216.848 19.5119 219.065 18.9206 221.514 19.5542C223.925 20.1889 225.946 22.4717 226.219 25.1777C226.413 27.3758 226.413 29.6174 226.452 31.8156C226.491 33.9714 226.452 36.1283 226.452 38.2842C226.452 38.3688 226.413 38.4111 226.374 38.5381C225.091 38.5381 223.808 38.5381 222.33 38.5381C222.33 38.1572 222.33 37.7775 222.33 37.3544C222.33 34.4369 222.369 31.5194 222.33 28.6029C222.291 27.3769 222.252 26.1086 221.436 25.0941C220.192 23.5296 218.909 23.3603 217.082 23.9527C215.682 24.4181 214.632 26.1509 214.632 27.8423C214.632 30.9714 214.632 34.1417 214.632 37.2708C214.632 37.6939 214.632 38.116 214.632 38.5814C213.155 38.5814 211.794 38.5814 210.355 38.5814C210.355 29.6184 210.355 20.6544 210.355 11.6068C211.755 11.6068 213.116 11.6068 214.632 11.6068C214.593 14.7348 214.593 17.9061 214.593 21.3726Z" fill="#1E1D5C"/>
<path d="M302.08 35.7487C302.78 34.7766 303.441 33.8457 304.18 33.0005C304.297 32.8735 304.801 32.9158 305.035 33.0851C306.629 34.2265 308.301 34.9881 310.245 34.7766C310.751 34.7343 311.334 34.6496 311.723 34.3958C312.151 34.0996 312.734 33.5505 312.734 33.1274C312.734 32.6197 312.267 31.8591 311.84 31.6898C310.362 31.0139 308.807 30.6754 307.33 29.9984C306.163 29.4906 304.88 28.9416 303.947 28.053C302.043 26.2769 302.392 22.5142 304.453 20.992C307.37 18.8361 310.48 18.8784 313.669 20.2737C314.641 20.6968 315.535 21.3305 316.585 21.9652C315.808 23.022 315.185 23.8259 314.603 24.6711C314.214 25.2212 313.903 24.9673 313.436 24.6711C311.764 23.572 310.015 22.9796 308.07 23.699C307.642 23.8682 307.332 24.4172 306.943 24.7981C307.293 25.2212 307.603 25.8125 308.07 25.9818C309.781 26.6165 311.569 27.0385 313.242 27.6732C316.507 28.8993 317.635 31.8591 316.663 34.9035C315.886 37.3132 313.863 38.2854 311.686 38.7508C308.731 39.3855 306.01 38.6662 303.482 36.9324C303.013 36.6362 302.585 36.2131 302.08 35.7487Z" fill="#FD8C14"/>
<path d="M291.971 14.8194C293.487 14.8194 294.809 14.8194 296.248 14.8194C296.248 16.4686 296.248 18.0754 296.248 19.7658C297.687 19.7658 299.009 19.7658 300.409 19.7658C300.409 21.2881 300.409 22.6833 300.409 24.2479C299.087 24.2479 297.726 24.2479 296.287 24.2479C296.287 27.25 296.209 30.0829 296.326 32.8734C296.404 34.3533 297.687 34.9446 299.436 34.5226C299.747 34.4379 300.02 34.3956 300.486 34.2687C300.486 35.6217 300.525 36.8477 300.447 38.0314C300.447 38.243 300.174 38.6238 299.98 38.6661C297.919 39.0469 295.897 39.2162 293.992 37.9901C293.02 37.3554 292.476 36.4256 292.359 35.3265C292.086 32.8322 292.009 30.3378 291.892 27.8011C291.853 26.6597 291.892 25.5183 291.892 24.25C290.803 24.25 289.831 24.25 288.782 24.25C288.782 22.7278 288.782 21.3325 288.782 19.8949C289.403 19.8103 290.026 19.7256 290.648 19.5987C291.542 19.4294 291.97 18.8381 291.931 17.8226C291.932 16.8917 291.971 15.8773 291.971 14.8194Z" fill="#FD8C14"/>
<path d="M259.075 24.2479C257.947 24.2479 256.975 24.2479 255.965 24.2479C255.965 22.768 255.965 21.3727 255.965 19.8928C256.548 19.8505 257.092 19.8505 257.637 19.7659C258.686 19.5543 259.192 18.9207 259.076 17.6946C258.998 16.8071 259.076 15.8762 259.076 14.8618C260.514 14.8618 261.875 14.8618 263.353 14.8618C263.353 16.4263 263.353 18.0331 263.353 19.8082C264.831 19.8082 266.153 19.8082 267.592 19.8082C267.592 21.3727 267.592 22.768 267.592 24.2902C266.192 24.2902 264.87 24.2902 263.431 24.2902C263.431 26.4461 263.431 28.4337 263.431 30.4627C263.431 31.0127 263.431 31.5194 263.431 32.0695C263.431 34.2254 264.481 35.0293 266.58 34.5216C266.813 34.4792 267.047 34.3946 267.279 34.3523C267.357 34.3523 267.474 34.4369 267.669 34.4792C267.669 35.6206 267.707 36.762 267.63 37.9034C267.591 38.1996 267.241 38.664 266.969 38.7486C265.18 39.1295 263.431 39.1295 261.72 38.3255C260.047 37.5649 259.426 36.0004 259.309 34.2666C259.153 31.3914 259.153 28.5586 259.076 25.6834C259.075 25.2211 259.075 24.8403 259.075 24.2479Z" fill="#FD8C14"/>
<path d="M233.88 19.8516C233.88 26.1087 233.88 32.2399 233.88 38.4546C232.558 38.4546 231.236 38.4546 229.836 38.4546C229.836 32.2822 229.836 26.1087 229.836 19.8516C231.158 19.8516 232.48 19.8516 233.88 19.8516Z" fill="#1E1D5C"/>
<path d="M234.346 13.7628C234.346 15.4965 233.375 16.4687 231.78 16.4687C230.536 16.4687 229.292 15.0311 229.331 13.7204C229.37 12.2829 230.614 11.0568 231.975 11.0568C233.336 11.0568 234.346 12.1982 234.346 13.7628Z" fill="#1E1D5C"/>
</svg>
