<svg width="635" height="415" viewBox="0 0 635 415" fill="none" xmlns="http://www.w3.org/2000/svg">
<path opacity="0.26" d="M151.618 86.9437C112.675 123.713 170.555 163.853 143.292 184.813C116.029 205.772 0.3903 250.736 124.106 316.838C247.821 382.939 256.176 418.422 338.003 366.09C419.831 313.759 411.289 319.008 483.2 346.062C555.11 373.117 624.907 319.14 596.277 262.37C567.648 205.601 551.891 207.363 577.803 168.218C603.714 129.073 546.345 9.31545 453.979 95.4472C361.613 181.579 347.921 135.2 303.96 96.43C280.158 75.4392 213.161 28.8357 151.618 86.9437Z" fill="url(#paint0_linear_29_903)"/>
<path opacity="0.26" d="M462.964 279.428C499.355 247.187 444.156 214.66 469.689 196.147C495.222 177.634 603.609 110.905 486.333 57.2693C427.479 30.3531 360.217 0.889877 283.46 47.4788C206.702 94.0671 214.717 89.3851 146.406 68.337C78.0955 47.2885 12.7329 94.9537 40.4684 142.372C68.2038 189.789 83.081 187.875 59.0395 221.785C34.9979 255.696 90.6458 355.806 176.971 280.252C263.297 204.698 276.786 243.695 318.808 275.429C341.56 292.61 405.453 330.38 462.964 279.428Z" fill="url(#paint1_linear_29_903)"/>
<path d="M61.0279 369.528H165.099C168.417 369.528 171.107 366.833 171.107 363.509V207.385C171.107 204.068 168.427 201.376 165.115 201.367L60.2118 201.085C56.8746 201.076 54.1692 203.793 54.1869 207.136L55.0191 363.541C55.0367 366.853 57.7219 369.528 61.0279 369.528Z" fill="url(#paint2_linear_29_903)"/>
<path d="M66.1277 208.789L159.184 209.363C162.547 209.384 165.259 212.129 165.243 215.498L164.593 355.624C164.578 358.943 161.92 361.641 158.607 361.702L68.1919 363.355C64.8152 363.417 62.0315 360.717 61.9842 357.334L59.9932 214.982C59.946 211.561 62.7126 208.768 66.1277 208.789Z" fill="url(#paint3_linear_29_903)"/>
<path opacity="0.6" d="M69.9114 216.639V217.282C69.9114 218.291 70.728 219.109 71.7352 219.109H143.434C144.441 219.109 145.258 218.291 145.258 217.282V216.639C145.258 215.631 144.441 214.813 143.434 214.813H71.7352C70.728 214.812 69.9114 215.63 69.9114 216.639Z" fill="white"/>
<path opacity="0.6" d="M77.9112 224.722C77.9631 225.678 78.7435 226.432 79.6992 226.45L142.404 227.594C143.424 227.613 144.261 226.79 144.261 225.767V225.618C144.261 224.62 143.462 223.807 142.465 223.792L79.761 222.796C78.704 222.78 77.8541 223.664 77.9112 224.722Z" fill="white"/>
<path opacity="0.61" d="M71.5109 358.741C68.5958 358.741 66.1931 356.384 66.1417 353.457L64.1071 238.851V238.851C64.0541 235.891 66.4163 233.435 69.3719 233.377L154.036 231.727C155.475 231.708 156.83 232.233 157.864 233.229C158.898 234.226 159.483 235.566 159.51 237.003L161.692 352.24C161.719 353.684 161.181 355.05 160.178 356.087C159.174 357.124 157.828 357.703 156.386 357.721L71.5758 358.741C71.554 358.74 71.5322 358.741 71.5109 358.741ZM154.142 233.805C154.12 233.805 154.098 233.806 154.076 233.806L69.4124 235.457C67.5995 235.491 66.151 236.998 66.1832 238.814L68.2178 353.42C68.25 355.228 69.7624 356.668 71.5509 356.66L156.362 355.64C157.246 355.63 158.072 355.274 158.687 354.638C159.303 354.002 159.633 353.164 159.616 352.279L157.434 237.042C157.417 236.16 157.059 235.338 156.425 234.727C155.805 234.131 154.998 233.805 154.142 233.805Z" fill="white"/>
<path opacity="0.61" d="M158.609 245.337H66.2435C65.6703 245.337 65.2051 244.871 65.2051 244.297C65.2051 243.723 65.6703 243.257 66.2435 243.257H158.609C159.182 243.257 159.647 243.723 159.647 244.297C159.647 244.871 159.183 245.337 158.609 245.337Z" fill="white"/>
<path d="M175.958 78.79C175.795 78.79 175.633 78.7131 175.533 78.568C175.138 78.0033 174.736 77.4453 174.327 76.8931C174.156 76.6627 174.205 76.3367 174.435 76.1656C174.666 75.9961 174.991 76.0434 175.162 76.2738C175.576 76.8338 175.983 77.399 176.384 77.9721C176.548 78.2071 176.491 78.5316 176.256 78.6964C176.165 78.7594 176.061 78.79 175.958 78.79Z" fill="#EAC4F9"/>
<path d="M113.523 200.159C113.238 200.159 113.006 199.93 113.004 199.644C113.001 199.357 113.232 199.122 113.518 199.119C114.924 199.107 116.343 199.055 117.737 198.965C118.02 198.95 118.27 199.164 118.288 199.45C118.307 199.737 118.09 199.984 117.803 200.003C116.39 200.094 114.952 200.147 113.527 200.16C113.526 200.159 113.524 200.159 113.523 200.159ZM106.623 199.906C106.609 199.906 106.594 199.905 106.58 199.904C105.163 199.787 103.731 199.63 102.326 199.435C102.042 199.396 101.844 199.134 101.883 198.849C101.922 198.564 102.185 198.361 102.468 198.405C103.855 198.597 105.267 198.752 106.664 198.867C106.95 198.891 107.163 199.142 107.139 199.428C107.117 199.7 106.891 199.906 106.623 199.906ZM124.634 199.249C124.382 199.249 124.161 199.065 124.121 198.808C124.078 198.524 124.271 198.258 124.555 198.214C125.934 198 127.331 197.743 128.706 197.45C128.987 197.39 129.263 197.569 129.322 197.851C129.382 198.132 129.203 198.408 128.922 198.468C127.527 198.764 126.111 199.025 124.714 199.242C124.687 199.246 124.66 199.249 124.634 199.249ZM135.499 196.744C135.277 196.744 135.072 196.601 135.003 196.377C134.919 196.103 135.073 195.811 135.347 195.727C136.687 195.315 138.033 194.861 139.347 194.377C139.616 194.278 139.915 194.416 140.013 194.686C140.113 194.956 139.974 195.254 139.705 195.353C138.373 195.844 137.009 196.304 135.651 196.721C135.601 196.737 135.55 196.744 135.499 196.744ZM145.893 192.713C145.699 192.713 145.512 192.603 145.424 192.416C145.301 192.156 145.412 191.846 145.671 191.723C146.935 191.125 148.202 190.481 149.435 189.811C149.688 189.674 150.003 189.767 150.139 190.02C150.276 190.272 150.182 190.588 149.931 190.725C148.68 191.404 147.396 192.056 146.115 192.663C146.044 192.698 145.968 192.713 145.893 192.713ZM155.597 187.218C155.429 187.218 155.264 187.137 155.164 186.986C155.005 186.748 155.07 186.425 155.309 186.266C156.471 185.49 157.629 184.671 158.75 183.829C158.98 183.658 159.305 183.705 159.477 183.934C159.649 184.163 159.602 184.489 159.373 184.662C158.236 185.514 157.062 186.345 155.884 187.13C155.796 187.19 155.695 187.218 155.597 187.218ZM164.392 180.375C164.25 180.375 164.108 180.317 164.006 180.204C163.814 179.99 163.831 179.661 164.044 179.469C165.084 178.53 166.112 177.55 167.098 176.555C167.301 176.352 167.629 176.35 167.833 176.553C168.036 176.755 168.037 177.085 167.835 177.288C166.835 178.296 165.794 179.29 164.739 180.242C164.64 180.331 164.516 180.375 164.392 180.375ZM172.107 172.325C171.99 172.325 171.873 172.286 171.775 172.205C171.555 172.021 171.524 171.694 171.707 171.473C172.602 170.393 173.478 169.274 174.311 168.147C174.482 167.916 174.806 167.867 175.037 168.038C175.268 168.209 175.316 168.535 175.145 168.765C174.301 169.908 173.413 171.042 172.506 172.136C172.404 172.261 172.256 172.325 172.107 172.325ZM178.584 163.241C178.492 163.241 178.399 163.216 178.314 163.164C178.069 163.014 177.992 162.695 178.142 162.449C178.87 161.255 179.577 160.021 180.242 158.782C180.377 158.529 180.692 158.433 180.945 158.57C181.197 158.706 181.291 159.021 181.156 159.275C180.482 160.53 179.765 161.78 179.027 162.992C178.93 163.152 178.759 163.241 178.584 163.241ZM183.694 153.317C183.626 153.317 183.556 153.304 183.49 153.276C183.226 153.163 183.104 152.857 183.217 152.593C183.768 151.302 184.291 149.98 184.77 148.66C184.868 148.39 185.166 148.251 185.436 148.349C185.705 148.447 185.844 148.746 185.746 149.016C185.26 150.352 184.73 151.693 184.172 153.002C184.088 153.199 183.895 153.317 183.694 153.317ZM187.327 142.759C187.283 142.759 187.238 142.754 187.194 142.742C186.916 142.668 186.751 142.384 186.826 142.106C187.185 140.749 187.512 139.363 187.796 137.988C187.855 137.707 188.129 137.528 188.41 137.585C188.691 137.643 188.872 137.919 188.813 138.2C188.525 139.593 188.194 140.997 187.829 142.373C187.767 142.605 187.557 142.759 187.327 142.759ZM189.399 131.785C189.379 131.785 189.359 131.784 189.339 131.782C189.054 131.749 188.85 131.491 188.883 131.206C189.042 129.809 189.165 128.391 189.246 126.99C189.263 126.703 189.508 126.489 189.795 126.502C190.082 126.518 190.3 126.764 190.283 127.051C190.2 128.471 190.076 129.909 189.914 131.326C189.884 131.59 189.659 131.785 189.399 131.785ZM189.855 120.619C189.576 120.619 189.345 120.397 189.336 120.116C189.292 118.716 189.207 117.296 189.083 115.896C189.059 115.609 189.269 115.357 189.555 115.332C189.845 115.303 190.093 115.518 190.118 115.804C190.242 117.224 190.328 118.663 190.374 120.082C190.383 120.37 190.159 120.609 189.872 120.618C189.866 120.619 189.861 120.619 189.855 120.619ZM188.687 109.514C188.44 109.514 188.221 109.337 188.176 109.086C187.929 107.706 187.64 106.313 187.317 104.947C187.251 104.667 187.424 104.387 187.702 104.321C187.983 104.253 188.261 104.428 188.328 104.707C188.655 106.092 188.948 107.503 189.199 108.902C189.25 109.185 189.062 109.455 188.779 109.506C188.748 109.512 188.717 109.514 188.687 109.514ZM185.936 98.693C185.719 98.693 185.516 98.5547 185.444 98.3368C185.001 97.0025 184.517 95.6646 184.004 94.3614C183.899 94.0942 184.03 93.7926 184.297 93.687C184.565 93.5835 184.865 93.714 184.97 93.9803C185.49 95.3006 185.98 96.6562 186.43 98.0082C186.52 98.2807 186.372 98.575 186.1 98.666C186.045 98.6847 185.99 98.693 185.936 98.693ZM181.671 88.3768C181.481 88.3768 181.298 88.2717 181.206 88.0897C180.577 86.8344 179.905 85.5812 179.208 84.365C179.066 84.1159 179.152 83.7982 179.401 83.6557C179.65 83.5132 179.966 83.5995 180.109 83.8481C180.815 85.0805 181.496 86.3508 182.134 87.6238C182.263 87.8802 182.159 88.1927 181.903 88.3216C181.829 88.3591 181.749 88.3768 181.671 88.3768Z" fill="#EAC4F9"/>
<path d="M95.5665 198.176C95.5276 198.176 95.4881 198.172 95.4486 198.163C94.7696 198.005 94.0936 197.838 93.4197 197.663C93.1425 197.59 92.9764 197.306 93.0485 197.028C93.1207 196.75 93.4026 196.585 93.6819 196.656C94.3465 196.83 95.0136 196.994 95.6833 197.15C95.9626 197.215 96.1365 197.494 96.0717 197.774C96.0161 198.014 95.8027 198.176 95.5665 198.176Z" fill="#EAC4F9"/>
<path d="M47.4029 163.584C47.229 163.584 47.0587 163.496 46.9605 163.337C46.5951 162.744 46.2373 162.146 45.8869 161.541C45.7431 161.292 45.8277 160.974 46.0759 160.83C46.324 160.686 46.6413 160.771 46.7856 161.019C47.1308 161.615 47.4839 162.206 47.8442 162.791C47.9947 163.035 47.9189 163.356 47.6749 163.506C47.5903 163.559 47.4963 163.584 47.4029 163.584Z" fill="#EAC4F9"/>
<path d="M43.1904 155.768C42.9952 155.768 42.8078 155.657 42.7195 155.468C42.1292 154.202 41.5644 152.9 41.0421 151.6C40.9351 151.334 41.0639 151.031 41.3297 150.923C41.5971 150.817 41.8982 150.945 42.0051 151.212C42.5207 152.495 43.0777 153.779 43.6602 155.029C43.7812 155.289 43.6696 155.598 43.4095 155.72C43.3389 155.753 43.2641 155.768 43.1904 155.768ZM39.2639 145.507C39.0412 145.507 38.8356 145.363 38.7676 145.138C38.6773 144.842 38.589 144.544 38.5023 144.247C38.196 143.195 37.9089 142.126 37.6493 141.072C37.5808 140.793 37.7506 140.511 38.0288 140.443C38.3055 140.373 38.5885 140.544 38.657 140.823C38.9135 141.863 39.1964 142.917 39.4986 143.955C39.5842 144.249 39.6715 144.543 39.7602 144.835C39.8438 145.11 39.6891 145.4 39.415 145.484C39.3646 145.5 39.3138 145.507 39.2639 145.507ZM36.814 134.794C36.5627 134.794 36.3415 134.61 36.3016 134.354C36.0866 132.97 35.9075 131.563 35.7679 130.17C35.7393 129.884 35.9475 129.629 36.233 129.6C36.5212 129.581 36.773 129.78 36.8015 130.066C36.9391 131.441 37.1161 132.828 37.328 134.194C37.3716 134.477 37.1779 134.744 36.8944 134.788C36.8674 134.792 36.841 134.794 36.814 134.794ZM35.9086 123.842C35.6246 123.842 35.3925 123.614 35.3894 123.328C35.3863 123.048 35.3847 122.769 35.3852 122.489C35.3852 121.369 35.4101 120.23 35.4595 119.105C35.4719 118.817 35.7242 118.599 36.001 118.608C36.2875 118.62 36.5092 118.863 36.4968 119.15C36.448 120.261 36.4236 121.384 36.4236 122.489C36.423 122.765 36.4246 123.041 36.4277 123.317C36.4308 123.604 36.2008 123.84 35.9143 123.843C35.9127 123.842 35.9106 123.842 35.9086 123.842ZM36.5793 112.867C36.5565 112.867 36.5331 112.866 36.5097 112.863C36.2258 112.825 36.0259 112.563 36.0638 112.278C36.2491 110.888 36.476 109.486 36.7361 108.111C36.7896 107.829 37.0611 107.645 37.343 107.697C37.6249 107.751 37.8097 108.023 37.7563 108.305C37.4993 109.661 37.276 111.044 37.0928 112.416C37.058 112.677 36.8353 112.867 36.5793 112.867ZM38.8076 102.103C38.7609 102.103 38.7131 102.097 38.6658 102.083C38.3902 102.005 38.2297 101.718 38.3081 101.442C38.6892 100.094 39.1118 98.7398 39.5656 97.4154C39.6585 97.144 39.9529 97.0004 40.2249 97.092C40.4964 97.1856 40.6408 97.4809 40.5478 97.7524C40.1008 99.0591 39.6829 100.396 39.307 101.725C39.2421 101.954 39.0339 102.103 38.8076 102.103ZM42.5399 91.7692C42.4693 91.7692 42.3981 91.7552 42.3291 91.7245C42.0674 91.6075 41.9491 91.3007 42.0653 91.0381C42.6344 89.7563 43.2444 88.4756 43.8788 87.2322C44.0091 86.9769 44.3211 86.875 44.5776 87.0055C44.833 87.1366 44.9343 87.4496 44.804 87.7054C44.1778 88.9321 43.5761 90.1957 43.0149 91.4609C42.9282 91.6538 42.7387 91.7692 42.5399 91.7692ZM47.6936 82.0686C47.5991 82.0686 47.5041 82.0432 47.4185 81.9896C47.1755 81.8367 47.1023 81.5159 47.2544 81.2725C47.9979 80.0854 48.7818 78.9039 49.586 77.762C49.7511 77.5275 50.0751 77.4713 50.3097 77.6367C50.5444 77.802 50.6004 78.1265 50.4348 78.3616C49.6415 79.4884 48.8675 80.6537 48.1344 81.8253C48.0358 81.9823 47.8665 82.0686 47.6936 82.0686ZM54.164 73.1974C54.0456 73.1974 53.9268 73.1574 53.8291 73.0747C53.6101 72.8896 53.5825 72.5615 53.7679 72.342C54.6681 71.2755 55.6114 70.2178 56.5714 69.1986C56.7681 68.9901 57.0973 68.9797 57.3055 69.1773C57.5142 69.3744 57.5235 69.7036 57.3273 69.9126C56.3803 70.9183 55.4495 71.9609 54.5612 73.0134C54.4584 73.135 54.312 73.1974 54.164 73.1974ZM61.8243 65.3376C61.681 65.3376 61.5383 65.2789 61.436 65.1629C61.2454 64.9482 61.2647 64.6195 61.4791 64.4287C62.5252 63.4989 63.6087 62.5874 64.6995 61.719C64.9237 61.5411 65.2503 61.5775 65.4289 61.8027C65.607 62.0278 65.5696 62.3549 65.3453 62.5333C64.2691 63.3892 63.2006 64.2888 62.1685 65.2066C62.0699 65.2945 61.9468 65.3376 61.8243 65.3376ZM70.5255 58.6541C70.3568 58.6541 70.1912 58.5719 70.0915 58.4201C69.9337 58.1804 70.0002 57.858 70.2395 57.6999C71.4066 56.9298 72.6105 56.1815 73.8176 55.4774C74.0652 55.3339 74.383 55.4171 74.5278 55.6651C74.6721 55.9132 74.588 56.2314 74.3404 56.376C73.1499 57.0707 71.9626 57.808 70.8111 58.5683C70.7223 58.626 70.6232 58.6541 70.5255 58.6541ZM80.0948 53.284C79.8996 53.284 79.7132 53.1733 79.6245 52.985C79.5025 52.725 79.6141 52.4151 79.8737 52.2934C81.1352 51.7001 82.4332 51.1328 83.7311 50.606C83.9969 50.4979 84.3001 50.6263 84.407 50.8931C84.5145 51.1593 84.3863 51.4625 84.121 51.5701C82.8402 52.0896 81.5594 52.6496 80.3144 53.2352C80.2438 53.2684 80.1691 53.284 80.0948 53.284ZM90.3286 49.3326C90.1064 49.3326 89.9009 49.189 89.8323 48.9649C89.7482 48.6904 89.9024 48.3992 90.177 48.3154C90.5207 48.2104 90.8655 48.1069 91.2112 48.0055C92.2054 47.7148 93.2225 47.4398 94.2343 47.187C94.5131 47.1231 94.7945 47.2874 94.8636 47.5661C94.9331 47.8448 94.7639 48.1272 94.4856 48.1969C93.4867 48.446 92.4832 48.7179 91.502 49.0044C91.1604 49.1043 90.8203 49.2062 90.4808 49.3102C90.4299 49.3258 90.379 49.3326 90.3286 49.3326ZM127.036 47.2385C127.004 47.2385 126.972 47.2354 126.94 47.2297C125.58 46.9744 124.199 46.7539 122.837 46.574C122.553 46.5365 122.353 46.2755 122.39 45.9905C122.428 45.7056 122.689 45.5064 122.973 45.5433C124.353 45.7253 125.752 45.9484 127.131 46.2068C127.413 46.2604 127.598 46.5318 127.546 46.8137C127.499 47.0643 127.281 47.2385 127.036 47.2385ZM101.019 46.86C100.769 46.86 100.547 46.6769 100.507 46.4206C100.463 46.1372 100.656 45.8704 100.939 45.8257C102.322 45.6078 103.728 45.4258 105.116 45.2838C105.396 45.2625 105.655 45.4627 105.685 45.7487C105.714 46.0347 105.506 46.29 105.221 46.3192C103.851 46.4585 102.465 46.6384 101.101 46.8537C101.073 46.8579 101.046 46.86 101.019 46.86ZM116.135 45.9916C116.128 45.9916 116.12 45.9916 116.113 45.991C114.738 45.9333 113.344 45.913 111.959 45.9307C111.957 45.9307 111.955 45.9307 111.952 45.9307C111.669 45.9307 111.437 45.7024 111.434 45.4175C111.43 45.1299 111.66 44.8944 111.947 44.8907C113.352 44.8736 114.764 44.8938 116.157 44.9521C116.444 44.964 116.666 45.2064 116.654 45.4934C116.642 45.7726 116.412 45.9916 116.135 45.9916Z" fill="#EAC4F9"/>
<path d="M135.679 49.3887C135.628 49.3887 135.577 49.3809 135.525 49.3653C134.869 49.1615 134.21 48.9654 133.548 48.7793C133.272 48.7013 133.112 48.4142 133.189 48.1376C133.267 47.862 133.555 47.7024 133.83 47.7783C134.5 47.9676 135.168 48.1657 135.833 48.3726C136.106 48.4579 136.259 48.7491 136.175 49.0232C136.106 49.2457 135.901 49.3887 135.679 49.3887Z" fill="#EAC4F9"/>
<path d="M137.378 68.6074C137.039 68.4067 136.609 68.4436 136.309 68.6994L127.746 75.9992C122.735 74.4272 117.437 73.6436 112.035 73.7611L105.84 64.3704C105.623 64.0408 105.221 63.8858 104.839 63.9841L91.7771 67.3495C91.395 67.4478 91.1178 67.778 91.0861 68.1711L90.1849 79.3901C85.3961 81.8986 81.1337 85.1444 77.5016 88.9435L66.4849 86.6888C66.0986 86.6098 65.7051 86.785 65.5047 87.1246L58.6439 98.7549C58.443 99.095 58.4804 99.525 58.7358 99.8256L66.0234 108.402C64.4534 113.422 63.6721 118.728 63.7889 124.139L54.4127 130.343C54.0841 130.561 53.9289 130.963 54.027 131.346L57.387 144.43C57.4851 144.812 57.8148 145.09 58.2078 145.121L69.4088 146.024C71.9133 150.82 75.1539 155.09 78.947 158.728L76.6953 169.762C76.6164 170.149 76.7914 170.544 77.1304 170.744L88.7426 177.616C89.0821 177.817 89.511 177.78 89.8116 177.524L98.3747 170.225C103.386 171.797 108.683 172.58 114.086 172.463L120.28 181.854C120.497 182.183 120.9 182.338 121.281 182.24L134.344 178.874C134.726 178.776 135.003 178.446 135.035 178.052L135.936 166.833C140.725 164.325 144.988 161.079 148.619 157.279L159.636 159.535C160.022 159.614 160.416 159.438 160.616 159.099L167.477 147.468C167.677 147.128 167.64 146.698 167.385 146.397L160.097 137.82C161.667 132.801 162.449 127.495 162.332 122.084L171.708 115.88C172.037 115.662 172.191 115.259 172.093 114.877L168.733 101.794C168.635 101.412 168.305 101.133 167.913 101.102L156.712 100.199C154.207 95.4025 150.966 91.1333 147.174 87.4953L149.425 76.4609C149.504 76.0741 149.329 75.6799 148.99 75.4787L137.378 68.6074Z" fill="url(#paint4_linear_29_903)"/>
<path d="M113.083 135.885C108.56 135.885 104.174 133.475 101.861 129.225C100.231 126.229 99.8626 122.776 100.825 119.503C101.788 116.229 103.965 113.528 106.957 111.894C113.133 108.523 120.895 110.812 124.26 116.997C127.626 123.182 125.341 130.957 119.165 134.329C117.232 135.384 115.143 135.885 113.083 135.885ZM107.702 113.264C102.281 116.223 100.274 123.049 103.229 128.479C106.184 133.909 112.999 135.921 118.42 132.959C123.841 130 125.847 123.174 122.893 117.744C119.938 112.314 113.123 110.304 107.702 113.264Z" fill="white"/>
<path d="M112.941 156.752C98.099 156.752 84.527 146.732 80.6628 131.685C79.95 128.911 79.598 126.101 79.5985 123.31C79.599 117.414 81.1726 111.602 84.2456 106.393C88.7732 98.7164 96.0146 93.2663 104.635 91.0449C106.703 90.5124 108.82 90.177 110.935 90.047C111.055 90.0397 111.175 90.0335 111.295 90.0272C111.415 90.021 111.535 90.0158 111.654 90.0111L111.715 91.5701C109.471 91.6585 107.219 91.9902 105.023 92.556C96.8047 94.6724 89.9024 99.8687 85.5861 107.186C82.6564 112.152 81.1565 117.692 81.156 123.313C81.156 125.974 81.4914 128.652 82.1705 131.297C85.854 145.639 98.7931 155.191 112.94 155.192C115.553 155.192 118.205 154.866 120.849 154.184C135.171 150.494 144.708 137.533 144.706 123.361C144.706 120.747 144.381 118.091 143.702 115.444C142.267 109.857 139.354 104.774 135.278 100.744L136.372 99.6342C140.648 103.862 143.704 109.195 145.209 115.055C145.923 117.831 146.263 120.617 146.264 123.361C146.266 138.228 136.26 151.824 121.237 155.695C118.464 156.409 115.681 156.752 112.941 156.752Z" fill="white"/>
<path d="M507.898 362.63C507.898 366.63 504.628 369.902 500.631 369.902H107.648C103.651 369.902 100.381 366.63 100.381 362.63L97.111 136.432C97.111 132.433 101.816 124.624 110.438 125.211L494.503 115.257C499.518 115.127 504.367 117.06 507.918 120.606C511.47 124.151 513.413 128.999 513.294 134.017L507.898 362.63Z" fill="url(#paint5_linear_29_903)"/>
<path d="M500.723 355.654C500.723 359.441 497.629 362.54 493.848 362.54H117.125C113.344 362.54 110.25 359.442 110.25 355.654L107.164 150.309C107.527 137.952 118.343 133.511 124.9 133.773C124.9 133.773 425.083 125.707 492.992 123.882C496.515 123.787 499.922 125.147 502.417 127.64C504.913 130.133 506.285 133.544 506.197 137.074L500.723 355.654Z" fill="url(#paint6_linear_29_903)"/>
<path d="M114.321 257.611C114.038 257.611 113.806 257.383 113.802 257.099L113.558 240.446C113.554 240.159 113.783 239.922 114.07 239.918C114.072 239.918 114.075 239.918 114.077 239.918C114.36 239.918 114.592 240.147 114.596 240.43L114.84 257.083C114.844 257.371 114.615 257.607 114.329 257.611C114.327 257.611 114.324 257.611 114.321 257.611Z" fill="white"/>
<path d="M113.723 216.802C113.44 216.802 113.208 216.574 113.204 216.29L112.269 152.509C112.288 148.26 113.595 144.866 116.152 142.411C120.808 137.943 128.092 138.17 128.402 138.18L245.953 135.02C246.25 135.029 246.478 135.239 246.486 135.527C246.493 135.814 246.268 136.052 245.98 136.06L128.4 139.22C128.071 139.205 121.211 138.996 116.87 143.162C114.524 145.414 113.325 148.557 113.307 152.504L114.242 216.275C114.246 216.562 114.017 216.799 113.731 216.803C113.728 216.802 113.725 216.802 113.723 216.802Z" fill="white"/>
<path opacity="0.37" d="M126.847 344.263C127.241 327.291 127.094 176.999 126.122 164.019C125.15 151.039 145.333 148.605 176.319 147.144C207.306 145.683 468.754 139.9 475.486 139.353C490.618 138.125 493.749 160.777 492.236 209.956C491.098 246.903 489.214 307.767 488.346 335.757C488.088 344.091 481.287 350.704 472.962 350.727C410.047 350.9 168.912 351.592 152.86 352.071C134.387 352.622 126.691 350.992 126.847 344.263Z" fill="white"/>
<path d="M534.45 388.68H81.7961C78.8654 388.68 76.4674 386.278 76.4674 383.343V374.142C76.4674 371.207 78.8654 368.805 81.7961 368.805H534.45C537.381 368.805 539.779 371.207 539.779 374.142V383.343C539.778 386.278 537.381 388.68 534.45 388.68Z" fill="url(#paint7_linear_29_903)"/>
<path opacity="0.5" d="M129.568 170.944L133.759 341.544C133.896 347.131 138.014 351.583 143.003 351.539L210.587 350.946C215.596 350.901 219.615 346.343 219.59 340.732L218.823 167.431C218.798 161.619 214.455 156.974 209.27 157.214L138.262 160.509C133.296 160.738 129.431 165.378 129.568 170.944Z" fill="white"/>
<path opacity="0.5" d="M228.295 169.034L231.706 341.896C231.818 347.517 235.96 352.007 240.978 351.946L481.295 349.046C486.366 348.985 490.397 344.305 490.269 338.626L486.351 164.71C486.225 159.087 482.065 154.61 477.044 154.693L237.233 158.646C232.188 158.729 228.184 163.384 228.295 169.034Z" fill="white"/>
<path d="M510.488 376.922C524.118 379.652 541.523 364.768 547.131 348.508C552.901 331.775 542.321 324.765 542.403 301.545C542.496 275.168 556.195 271.193 565.256 235.639C567.3 227.618 579.131 181.197 564.468 172.496C550.91 164.451 512.828 187.539 506.154 217.091C501.394 238.162 516.107 247.01 510.488 271.552C505.557 293.086 492.599 293.398 487.635 314.174C481.591 339.467 492.591 373.338 510.488 376.922Z" fill="url(#paint8_linear_29_903)"/>
<path d="M511.478 383.312C507.804 354.893 514.971 311.05 521.632 279.273C528.842 244.87 537.026 216.808 537.108 216.529L538.242 216.862C538.16 217.142 529.988 245.166 522.787 279.525C516.147 311.209 508.998 354.907 512.65 383.161L511.478 383.312Z" fill="url(#paint9_linear_29_903)"/>
<path d="M526.185 373.749C508.306 364.418 502.186 332.378 512.349 321.964C519.216 314.928 529.064 322.329 538.564 315.035C550.694 305.723 541.771 288.185 551.308 265.439C559.423 246.082 578.891 227.765 590.266 231.523C602.174 235.457 608.446 264.647 598.276 282.214C591.663 293.638 581.539 294.199 579.343 304.824C576.795 317.153 589.107 322.776 589.174 334.728C589.295 356.199 549.837 386.093 526.185 373.749Z" fill="url(#paint10_linear_29_903)"/>
<path d="M535.833 381.955C535.726 381.955 535.618 381.931 535.516 381.881C535.154 381.706 535.003 381.269 535.178 380.907C558.881 331.986 565.831 275.235 565.899 274.667C565.947 274.267 566.309 273.981 566.708 274.029C567.107 274.077 567.393 274.44 567.345 274.839C567.277 275.409 560.297 332.405 536.489 381.544C536.363 381.803 536.103 381.955 535.833 381.955Z" fill="url(#paint11_linear_29_903)"/>
<path d="M584.463 289.364C584.388 289.364 584.313 289.34 584.249 289.291C584.097 289.172 584.07 288.953 584.188 288.801C591.67 279.182 599.962 264.732 596.977 250.511C595.199 242.041 590.195 237.624 590.145 237.58C590 237.455 589.983 237.235 590.11 237.089C590.236 236.943 590.455 236.927 590.601 237.054C590.814 237.238 595.832 241.67 597.658 250.368C599.336 258.361 598.456 271.593 584.738 289.23C584.669 289.318 584.566 289.364 584.463 289.364Z" fill="#F0F0F0"/>
<path d="M524.573 369.477C524.462 369.477 524.353 369.424 524.286 369.326C512.788 352.519 508.867 339.532 512.632 330.727C515.979 322.898 524.431 321.442 524.517 321.428C524.707 321.398 524.885 321.526 524.916 321.716C524.946 321.906 524.818 322.086 524.628 322.116C524.547 322.129 516.46 323.534 513.268 331.01C509.609 339.582 513.509 352.341 524.859 368.932C524.968 369.091 524.927 369.308 524.769 369.417C524.709 369.458 524.641 369.477 524.573 369.477Z" fill="#F0F0F0"/>
<path d="M37.4084 389.249H125.399C128.204 389.249 130.479 387.524 130.479 385.396V285.447C130.479 283.324 128.213 281.6 125.413 281.595L36.719 281.414C33.8973 281.409 31.6098 283.148 31.6249 285.288L32.3284 385.417C32.3429 387.537 34.6132 389.249 37.4084 389.249Z" fill="url(#paint12_linear_29_903)"/>
<path d="M41.7201 286.346L120.398 286.713C123.242 286.727 125.534 288.484 125.521 290.641L124.972 380.348C124.959 382.473 122.712 384.201 119.911 384.239L43.4666 385.297C40.6117 385.336 38.2578 383.608 38.2183 381.443L36.5336 290.31C36.4931 288.12 38.8325 286.332 41.7201 286.346Z" fill="url(#paint13_linear_29_903)"/>
<path opacity="0.6" d="M44.9192 291.372V291.783C44.9192 292.429 45.6097 292.953 46.4616 292.953H107.082C107.934 292.953 108.625 292.429 108.625 291.783V291.372C108.625 290.726 107.934 290.202 107.082 290.202H46.4611C45.6097 290.202 44.9192 290.726 44.9192 291.372Z" fill="white"/>
<path opacity="0.6" d="M51.6829 296.546C51.7265 297.158 52.3864 297.641 53.1947 297.652L106.21 298.384C107.073 298.396 107.781 297.869 107.781 297.215V297.119C107.781 296.481 107.105 295.96 106.263 295.95L53.2477 295.312C52.3531 295.302 51.6346 295.869 51.6829 296.546Z" fill="white"/>
<path opacity="0.61" d="M46.269 382.718C43.6789 382.718 41.6204 381.081 41.5711 378.974L39.8511 305.604C39.8303 304.724 40.1823 303.861 40.8411 303.175C41.7133 302.267 43.0341 301.734 44.4644 301.713L116.047 300.657C118.648 300.624 120.78 302.295 120.833 304.395L122.678 378.169C122.7 379.054 122.347 379.92 121.683 380.609C120.802 381.521 119.472 382.051 118.031 382.065L46.3251 382.718C46.3064 382.718 46.2877 382.718 46.269 382.718ZM116.134 302.736C116.115 302.736 116.096 302.736 116.077 302.736L44.495 303.792C43.6275 303.805 42.8207 304.113 42.3374 304.617C42.1448 304.817 41.9174 305.143 41.9267 305.555L43.6467 378.925C43.6685 379.867 44.8823 380.651 46.3054 380.638L118.012 379.985C118.886 379.977 119.699 379.67 120.188 379.163C120.383 378.962 120.612 378.635 120.601 378.221L118.756 304.447C118.734 303.511 117.539 302.736 116.134 302.736Z" fill="white"/>
<path opacity="0.61" d="M119.912 310.117H41.8182C41.2451 310.117 40.7799 309.651 40.7799 309.077C40.7799 308.503 41.2451 308.037 41.8182 308.037H119.912C120.485 308.037 120.95 308.503 120.95 309.077C120.95 309.651 120.485 310.117 119.912 310.117Z" fill="white"/>
<path opacity="0.54" d="M143.371 195.77C138.173 227.679 160.259 257.845 192.703 263.147C225.146 268.449 255.661 246.879 260.859 214.97C266.057 183.06 243.97 152.895 211.526 147.593C179.083 142.291 148.569 163.861 143.371 195.77Z" fill="url(#paint14_linear_29_903)"/>
<path d="M261.286 223.024C261.261 223.024 261.236 223.02 261.211 223.013C261.074 222.972 260.995 222.827 261.036 222.69C261.473 221.219 261.858 219.708 262.181 218.2C262.211 218.059 262.346 217.972 262.489 218C262.629 218.03 262.718 218.168 262.688 218.309C262.363 219.83 261.974 221.354 261.535 222.838C261.5 222.951 261.397 223.024 261.286 223.024ZM263.765 204.974C263.624 204.974 263.508 204.86 263.505 204.718C263.44 200.514 262.922 196.304 261.967 192.204V192.203C256.339 168.046 236.657 149.814 211.826 145.757C200.246 143.864 188.465 145.247 177.756 149.753C177.624 149.807 177.472 149.747 177.416 149.614C177.36 149.482 177.422 149.33 177.554 149.274C188.354 144.729 200.233 143.335 211.91 145.243C224.324 147.272 235.682 152.865 244.756 161.416C253.618 169.77 259.745 180.374 262.472 192.085C263.436 196.221 263.958 200.469 264.025 204.71C264.027 204.854 263.912 204.972 263.769 204.974C263.768 204.974 263.767 204.974 263.765 204.974Z" fill="white"/>
<path d="M253.864 239.201L358.083 314.17C362.453 317.314 363.224 323.521 359.755 327.641L359.185 328.318C356.116 331.964 350.67 332.41 347.05 329.312L248.977 245.381L253.864 239.201Z" fill="url(#paint15_linear_29_903)"/>
<path d="M351.627 328.642C351.49 328.642 351.376 328.535 351.368 328.397C351.359 328.254 351.468 328.131 351.612 328.122C355.289 327.904 357.574 326.508 358.404 323.974C359.244 321.411 358.284 318.538 356.015 316.826L343.603 307.462C343.489 307.376 343.466 307.213 343.552 307.098C343.638 306.983 343.802 306.961 343.915 307.047L356.327 316.411C358.774 318.257 359.806 321.361 358.897 324.136C357.994 326.893 355.553 328.409 351.641 328.641C351.637 328.642 351.632 328.642 351.627 328.642Z" fill="white"/>
<path d="M339.936 304.63C339.882 304.63 339.826 304.613 339.78 304.577L338.171 303.364C338.056 303.277 338.033 303.114 338.12 302.999C338.205 302.885 338.368 302.862 338.483 302.948L340.092 304.162C340.207 304.248 340.229 304.411 340.143 304.526C340.092 304.594 340.015 304.63 339.936 304.63Z" fill="white"/>
<path d="M136.748 194.687C130.964 230.194 155.541 263.76 191.642 269.66C227.743 275.56 261.697 251.558 267.481 216.052C273.265 180.546 248.688 146.979 212.587 141.079C176.487 135.18 142.532 159.181 136.748 194.687ZM146.35 196.256C151.284 165.966 180.251 145.49 211.049 150.524C241.846 155.557 262.813 184.192 257.879 214.483C252.945 244.774 223.978 265.249 193.18 260.216C162.383 255.183 141.416 226.548 146.35 196.256Z" fill="url(#paint16_linear_29_903)"/>
<path d="M445.28 384.15H584.976C586.225 384.15 587.237 385.164 587.237 386.415C587.237 387.666 586.225 388.68 584.976 388.68H445.28C444.031 388.68 443.018 387.666 443.018 386.415C443.018 385.164 444.031 384.15 445.28 384.15Z" fill="url(#paint17_linear_29_903)"/>
<path d="M465.066 361.122H565.189C568.208 361.122 570.654 363.573 570.654 366.596V384.15H459.601V366.596C459.601 363.573 462.048 361.122 465.066 361.122Z" fill="url(#paint18_linear_29_903)"/>
<path d="M472.474 351.341H557.782C560.8 351.341 563.247 353.792 563.247 356.815V361.122H467.009V356.815C467.009 353.792 469.455 351.341 472.474 351.341Z" fill="url(#paint19_linear_29_903)"/>
<path d="M489.43 351.341H540.825V329.072C540.825 325.435 537.882 322.488 534.252 322.488H496.003C492.373 322.488 489.43 325.436 489.43 329.072V351.341Z" fill="url(#paint20_linear_29_903)"/>
<path d="M547.636 384.15H556.61V365.904H547.636V384.15Z" fill="url(#paint21_linear_29_903)"/>
<path d="M540.826 384.15H544.431V365.904H540.826V384.15Z" fill="url(#paint22_linear_29_903)"/>
<path d="M535.744 384.15H539.35V365.904H535.744V384.15Z" fill="url(#paint23_linear_29_903)"/>
<path d="M530.662 384.15H534.268V365.904H530.662V384.15Z" fill="url(#paint24_linear_29_903)"/>
<path d="M456.021 210.067C457.374 209.032 459.303 209.261 460.376 210.583L529.088 294.2C530.207 295.58 529.967 297.614 528.556 298.693L522.095 303.641L452.65 212.648L456.021 210.067Z" fill="url(#paint25_linear_29_903)"/>
<path d="M428.367 214.993C426.324 212.199 426.887 208.28 429.635 206.177L436.446 200.961C439.194 198.858 443.116 199.341 445.273 202.049L524.994 301.421L505.998 315.965C504.457 317.144 502.249 316.822 501.109 315.251L428.367 214.993Z" fill="url(#paint26_linear_29_903)"/>
<path d="M447.073 224.406L447.786 223.861C449.992 222.172 453.147 222.593 454.833 224.803L494.537 276.826C496.223 279.036 495.802 282.196 493.595 283.885L492.883 284.431C490.677 286.12 487.522 285.698 485.835 283.488L446.132 231.465C444.446 229.256 444.868 226.095 447.073 224.406Z" fill="url(#paint27_linear_29_903)"/>
<path opacity="0.39" d="M492.223 284.918L494.23 283.38L448.421 223.354L446.413 224.891L492.223 284.918Z" fill="white"/>
<path d="M516.479 328.988C528.86 328.988 538.898 318.935 538.898 306.533C538.898 294.132 528.86 284.079 516.479 284.079C504.097 284.079 494.06 294.132 494.06 306.533C494.06 318.935 504.097 328.988 516.479 328.988Z" fill="url(#paint28_linear_29_903)"/>
<path opacity="0.39" d="M529.453 317.74C535.62 310.558 534.807 299.729 527.637 293.552C520.467 287.374 509.655 288.188 503.488 295.37C497.321 302.551 498.133 313.381 505.303 319.558C512.473 325.735 523.285 324.921 529.453 317.74Z" fill="white"/>
<path d="M434.796 203.428L429.275 199.932C428.07 199.17 426.474 199.555 425.748 200.784L382.021 275.916C381.326 277.094 381.691 278.614 382.846 279.345L385.727 281.169L434.796 203.428Z" fill="url(#paint29_linear_29_903)"/>
<path d="M387.274 300.334L381.454 296.649C379.107 295.162 378.377 292.069 379.813 289.688L432.318 201.859L448.548 212.136C449.864 212.97 450.237 214.725 449.373 216.023L394.256 298.833C392.725 301.153 389.621 301.82 387.274 300.334Z" fill="url(#paint30_linear_29_903)"/>
<path d="M403.365 278.191L432.698 231.717C433.996 229.661 433.384 226.941 431.331 225.641C429.279 224.341 426.562 224.954 425.264 227.01L395.931 273.483C394.633 275.539 395.245 278.26 397.298 279.56C399.351 280.86 402.067 280.247 403.365 278.191Z" fill="url(#paint31_linear_29_903)"/>
<path opacity="0.39" d="M432.166 226.183L430.451 225.097L396.415 279.013L398.131 280.099L432.166 226.183Z" fill="white"/>
<path d="M438.535 224.89C448.478 224.89 456.538 216.817 456.538 206.859C456.538 196.9 448.478 188.827 438.535 188.827C428.593 188.827 420.533 196.9 420.533 206.859C420.533 216.817 428.593 224.89 438.535 224.89Z" fill="url(#paint32_linear_29_903)"/>
<path opacity="0.39" d="M450.159 214.219C454.217 207.79 452.303 199.282 445.884 195.217C439.464 191.152 430.97 193.069 426.911 199.499C422.853 205.929 424.767 214.437 431.187 218.502C437.607 222.566 446.101 220.649 450.159 214.219Z" fill="white"/>
<path d="M325.324 282.333L326.306 277.009C326.702 274.862 328.319 273.349 329.945 273.604L389.82 282.703L387.082 297.548C386.86 298.752 385.934 299.581 385.033 299.384L327.508 286.815C325.899 286.472 324.929 284.48 325.324 282.333Z" fill="url(#paint33_linear_29_903)"/>
<path d="M382.685 304.561C390.36 305.981 397.731 300.901 399.149 293.214C400.567 285.526 395.494 278.143 387.819 276.723C380.145 275.303 372.773 280.384 371.356 288.071C369.938 295.758 375.011 303.141 382.685 304.561Z" fill="url(#paint34_linear_29_903)"/>
<path opacity="0.39" d="M393.364 297.756C397.3 293.27 396.859 286.439 392.381 282.497C387.903 278.556 381.082 278.997 377.147 283.482C373.212 287.968 373.652 294.799 378.13 298.741C382.609 302.682 389.429 302.242 393.364 297.756Z" fill="white"/>
<path d="M321.345 288.078L325.492 288.828C326.108 288.94 326.698 288.53 326.81 287.913L329.706 271.868C329.818 271.25 329.408 270.659 328.792 270.547L324.645 269.796C324.029 269.685 323.439 270.095 323.327 270.712L320.431 286.757C320.319 287.375 320.729 287.966 321.345 288.078Z" fill="url(#paint35_linear_29_903)"/>
<path d="M311.843 284.458L303.841 296.645L281.472 283.851L282.748 280.226L302.217 289.807L308.377 280.29L311.843 284.458Z" fill="url(#paint36_linear_29_903)"/>
<path d="M314.39 269.999L310.949 255.826L285.586 260.337L285.57 264.18L307.122 261.719L309.726 272.757L314.39 269.999Z" fill="url(#paint37_linear_29_903)"/>
<path d="M318.087 268.992C315.109 267.995 311.697 268.562 309.162 270.781C305.36 274.11 304.972 279.895 308.296 283.703C309.978 285.63 312.288 286.682 314.652 286.819L318.087 268.992Z" fill="url(#paint38_linear_29_903)"/>
<path d="M324.083 270.143L324.597 267.292C324.69 266.778 324.32 266.28 323.771 266.181L318.494 265.226C317.944 265.126 317.424 265.462 317.331 265.977L313.229 288.706C313.136 289.221 313.506 289.718 314.055 289.817L319.332 290.773C319.882 290.872 320.402 290.536 320.495 290.022L320.967 287.41L324.083 270.143Z" fill="url(#paint39_linear_29_903)"/>
<path d="M271.444 226.404L404.79 224.974" stroke="black" stroke-opacity="0.2" stroke-width="5" stroke-linecap="round"/>
<path d="M267.197 237.567L399.055 237.185" stroke="black" stroke-opacity="0.2" stroke-width="5" stroke-linecap="round"/>
<path d="M263.55 171.44L456.4 169.976" stroke="black" stroke-opacity="0.2" stroke-width="5" stroke-linecap="round"/>
<path d="M270.727 182.576L456.4 180.78" stroke="black" stroke-opacity="0.2" stroke-width="5" stroke-linecap="round"/>
<path d="M351.547 192.927L414.11 193.354" stroke="black" stroke-opacity="0.2" stroke-width="5" stroke-linecap="round"/>
<path d="M276.917 192.114L335.323 192.927" stroke="#FF0000" stroke-opacity="0.5" stroke-width="5" stroke-linecap="round"/>
<path d="M274.312 205.568L412.676 205.602" stroke="black" stroke-opacity="0.2" stroke-width="5" stroke-linecap="round"/>
<path d="M233.637 273.156L274.102 273.986" stroke="black" stroke-opacity="0.2" stroke-width="5" stroke-linecap="round"/>
<path d="M414.582 279.339L461.918 279.339" stroke="black" stroke-opacity="0.2" stroke-width="5" stroke-linecap="round"/>
<path d="M338.987 296.545H352.751" stroke="black" stroke-opacity="0.2" stroke-width="5" stroke-linecap="round"/>
<path d="M406.184 293.868H467.262" stroke="black" stroke-opacity="0.2" stroke-width="5" stroke-linecap="round"/>
<path d="M240.508 289.28H283.276" stroke="#CCB9A2" stroke-width="5" stroke-linecap="round"/>
<path d="M245.311 307.284L305.404 307.628" stroke="black" stroke-opacity="0.2" stroke-width="5" stroke-linecap="round"/>
<path d="M361.902 307.633L467.262 307.633" stroke="black" stroke-opacity="0.2" stroke-width="5" stroke-linecap="round"/>
<path d="M153.153 184.013L215.524 184.013" stroke="black" stroke-opacity="0.2" stroke-width="5" stroke-linecap="round"/>
<path d="M161.756 196.946H215.544" stroke="black" stroke-opacity="0.2" stroke-width="5" stroke-linecap="round"/>
<path d="M149.568 208.442L209.235 208.442" stroke="#FF0000" stroke-opacity="0.5" stroke-width="5" stroke-linecap="round"/>
<path d="M156.02 220.656L215.687 220.69" stroke="black" stroke-opacity="0.2" stroke-width="5" stroke-linecap="round"/>
<path d="M135.941 261.968H158.177" stroke="#606060" stroke-opacity="0.5" stroke-width="5" stroke-linecap="round"/>
<path d="M159.605 235.025L216.241 235.025" stroke="black" stroke-opacity="0.2" stroke-width="5" stroke-linecap="round"/>
<path d="M174.66 250.113H216.241" stroke="#FF0000" stroke-opacity="0.5" stroke-width="5" stroke-linecap="round"/>
<path d="M135.947 250.113H148.134" stroke="black" stroke-opacity="0.2" stroke-width="5" stroke-linecap="round"/>
<path d="M148.134 275.26L207.801 275.295" stroke="black" stroke-opacity="0.2" stroke-width="5" stroke-linecap="round"/>
<path d="M137.381 314.417L212.657 314.791" stroke="#FF0000" stroke-opacity="0.5" stroke-width="5" stroke-linecap="round"/>
<path d="M147.417 289.63L204.054 289.63" stroke="black" stroke-opacity="0.2" stroke-width="5" stroke-linecap="round"/>
<path d="M176.094 302.562L212.657 302.562" stroke="black" stroke-opacity="0.2" stroke-width="5" stroke-linecap="round"/>
<path d="M137.381 302.562L165.34 302.562" stroke="black" stroke-opacity="0.2" stroke-width="5" stroke-linecap="round"/>
<path d="M154.592 327.709L214.259 327.744" stroke="black" stroke-opacity="0.2" stroke-width="5" stroke-linecap="round"/>
<path d="M313.421 252.239L378.518 252.66" stroke="#FF0000" stroke-opacity="0.5" stroke-width="5" stroke-linecap="round"/>
<path d="M342.051 265.574L382.717 265.995" stroke="black" stroke-opacity="0.2" stroke-width="5" stroke-linecap="round"/>
<defs>
<linearGradient id="paint0_linear_29_903" x1="66.6102" y1="236.716" x2="597.319" y2="202.097" gradientUnits="userSpaceOnUse">
<stop stop-color="#2B3582"/>
<stop offset="1" stop-color="#498BEF"/>
</linearGradient>
<linearGradient id="paint1_linear_29_903" x1="543.105" y1="149.985" x2="40.1957" y2="193.589" gradientUnits="userSpaceOnUse">
<stop stop-color="#1E1D5C"/>
<stop offset="1" stop-color="#95CEF8"/>
</linearGradient>
<linearGradient id="paint2_linear_29_903" x1="165.793" y1="146.671" x2="7.99456" y2="556.983" gradientUnits="userSpaceOnUse">
<stop stop-color="#150E42"/>
<stop offset="1" stop-color="#3840F7"/>
</linearGradient>
<linearGradient id="paint3_linear_29_903" x1="37.2288" y1="420.894" x2="161.172" y2="197.636" gradientUnits="userSpaceOnUse">
<stop stop-color="#A4AAD5"/>
<stop offset="1" stop-color="#2B3582"/>
</linearGradient>
<linearGradient id="paint4_linear_29_903" x1="129.702" y1="66.3209" x2="96.3221" y2="179.873" gradientUnits="userSpaceOnUse">
<stop stop-color="#151541"/>
<stop offset="1" stop-color="#498BEF"/>
</linearGradient>
<linearGradient id="paint5_linear_29_903" x1="268.245" y1="352.513" x2="361.327" y2="73.7134" gradientUnits="userSpaceOnUse">
<stop stop-color="#2B3582"/>
<stop offset="1" stop-color="#150E42"/>
</linearGradient>
<linearGradient id="paint6_linear_29_903" x1="475.219" y1="55.2765" x2="-37.6719" y2="640.146" gradientUnits="userSpaceOnUse">
<stop stop-color="#FFC985"/>
<stop offset="1" stop-color="#FD8C14"/>
</linearGradient>
<linearGradient id="paint7_linear_29_903" x1="483.571" y1="335.997" x2="71.6944" y2="436.023" gradientUnits="userSpaceOnUse">
<stop stop-color="#2B3582"/>
<stop offset="1" stop-color="#150E42"/>
</linearGradient>
<linearGradient id="paint8_linear_29_903" x1="519.634" y1="311.138" x2="538.977" y2="233.889" gradientUnits="userSpaceOnUse">
<stop stop-color="#2B3582"/>
<stop offset="1" stop-color="#498BEF"/>
</linearGradient>
<linearGradient id="paint9_linear_29_903" x1="540.592" y1="217.249" x2="506.518" y2="382.289" gradientUnits="userSpaceOnUse">
<stop stop-color="#2B3582"/>
<stop offset="1" stop-color="#150E42"/>
</linearGradient>
<linearGradient id="paint10_linear_29_903" x1="640.496" y1="197.867" x2="463.105" y2="484.33" gradientUnits="userSpaceOnUse">
<stop stop-color="#1E1D5C"/>
<stop offset="1" stop-color="#67B6FF"/>
</linearGradient>
<linearGradient id="paint11_linear_29_903" x1="562.911" y1="273.242" x2="540.274" y2="382.887" gradientUnits="userSpaceOnUse">
<stop stop-color="#2B3582"/>
<stop offset="1" stop-color="#150E42"/>
</linearGradient>
<linearGradient id="paint12_linear_29_903" x1="120.322" y1="278.199" x2="64.7472" y2="447.521" gradientUnits="userSpaceOnUse">
<stop stop-color="#150E42"/>
<stop offset="1" stop-color="#498BEF"/>
</linearGradient>
<linearGradient id="paint13_linear_29_903" x1="17.227" y1="396.908" x2="260.606" y2="161.603" gradientUnits="userSpaceOnUse">
<stop stop-color="#2B3582"/>
<stop offset="1" stop-color="#D0E0FF"/>
</linearGradient>
<linearGradient id="paint14_linear_29_903" x1="167.122" y1="158.386" x2="367.541" y2="426.621" gradientUnits="userSpaceOnUse">
<stop stop-color="#53D8FF"/>
<stop offset="1" stop-color="#3840F7"/>
</linearGradient>
<linearGradient id="paint15_linear_29_903" x1="326.927" y1="305.238" x2="220.614" y2="189.242" gradientUnits="userSpaceOnUse">
<stop stop-color="#2B3582"/>
<stop offset="1" stop-color="#150E42"/>
</linearGradient>
<linearGradient id="paint16_linear_29_903" x1="267.481" y1="216.051" x2="136.737" y2="194.756" gradientUnits="userSpaceOnUse">
<stop stop-color="#2B3582"/>
<stop offset="1" stop-color="#150E42"/>
</linearGradient>
<linearGradient id="paint17_linear_29_903" x1="514.05" y1="369.683" x2="514.57" y2="377.732" gradientUnits="userSpaceOnUse">
<stop stop-color="#2B3582"/>
<stop offset="1" stop-color="#150E42"/>
</linearGradient>
<linearGradient id="paint18_linear_29_903" x1="513.847" y1="347.45" x2="515.668" y2="386.916" gradientUnits="userSpaceOnUse">
<stop stop-color="#2B3582"/>
<stop offset="1" stop-color="#150E42"/>
</linearGradient>
<linearGradient id="paint19_linear_29_903" x1="514.082" y1="336.72" x2="515.642" y2="369.696" gradientUnits="userSpaceOnUse">
<stop stop-color="#2B3582"/>
<stop offset="1" stop-color="#150E42"/>
</linearGradient>
<linearGradient id="paint20_linear_29_903" x1="513.227" y1="314.063" x2="515.545" y2="345.688" gradientUnits="userSpaceOnUse">
<stop stop-color="#2C7FFB"/>
<stop offset="1" stop-color="#150E42"/>
</linearGradient>
<linearGradient id="paint21_linear_29_903" x1="545.246" y1="345.447" x2="553.518" y2="380.913" gradientUnits="userSpaceOnUse">
<stop stop-color="#2B3582"/>
<stop offset="1" stop-color="#150E42"/>
</linearGradient>
<linearGradient id="paint22_linear_29_903" x1="536.239" y1="347.547" x2="544.512" y2="383.014" gradientUnits="userSpaceOnUse">
<stop stop-color="#2B3582"/>
<stop offset="1" stop-color="#150E42"/>
</linearGradient>
<linearGradient id="paint23_linear_29_903" x1="531.419" y1="348.672" x2="539.691" y2="384.138" gradientUnits="userSpaceOnUse">
<stop stop-color="#2B3582"/>
<stop offset="1" stop-color="#150E42"/>
</linearGradient>
<linearGradient id="paint24_linear_29_903" x1="526.598" y1="349.796" x2="534.871" y2="385.262" gradientUnits="userSpaceOnUse">
<stop stop-color="#2B3582"/>
<stop offset="1" stop-color="#150E42"/>
</linearGradient>
<linearGradient id="paint25_linear_29_903" x1="496.337" y1="251.282" x2="487.361" y2="258.132" gradientUnits="userSpaceOnUse">
<stop stop-color="#2B3582"/>
<stop offset="1" stop-color="#150E42"/>
</linearGradient>
<linearGradient id="paint26_linear_29_903" x1="484.471" y1="248.32" x2="462.706" y2="264.93" gradientUnits="userSpaceOnUse">
<stop stop-color="#2B3582"/>
<stop offset="1" stop-color="#150E42"/>
</linearGradient>
<linearGradient id="paint27_linear_29_903" x1="423.191" y1="222.657" x2="488.058" y2="265.844" gradientUnits="userSpaceOnUse">
<stop stop-color="#53D8FF"/>
<stop offset="1" stop-color="#3840F7"/>
</linearGradient>
<linearGradient id="paint28_linear_29_903" x1="534.29" y1="292.897" x2="498.626" y2="320.114" gradientUnits="userSpaceOnUse">
<stop stop-color="#53D8FF"/>
<stop offset="1" stop-color="#3840F7"/>
</linearGradient>
<linearGradient id="paint29_linear_29_903" x1="392.685" y1="227.634" x2="409.452" y2="241.896" gradientUnits="userSpaceOnUse">
<stop stop-color="#2B3582"/>
<stop offset="1" stop-color="#150E42"/>
</linearGradient>
<linearGradient id="paint30_linear_29_903" x1="441.605" y1="207.74" x2="384.204" y2="298.39" gradientUnits="userSpaceOnUse">
<stop stop-color="#2B3582"/>
<stop offset="1" stop-color="#150E42"/>
</linearGradient>
<linearGradient id="paint31_linear_29_903" x1="430.16" y1="266.886" x2="401.704" y2="241.314" gradientUnits="userSpaceOnUse">
<stop stop-color="#53D8FF"/>
<stop offset="1" stop-color="#3840F7"/>
</linearGradient>
<linearGradient id="paint32_linear_29_903" x1="448.156" y1="191.618" x2="428.871" y2="222.072" gradientUnits="userSpaceOnUse">
<stop stop-color="#53D8FF"/>
<stop offset="1" stop-color="#3840F7"/>
</linearGradient>
<linearGradient id="paint33_linear_29_903" x1="388.254" y1="291.198" x2="325.814" y2="279.679" gradientUnits="userSpaceOnUse">
<stop stop-color="#2B3582"/>
<stop offset="1" stop-color="#150E42"/>
</linearGradient>
<linearGradient id="paint34_linear_29_903" x1="360.929" y1="306.491" x2="414.315" y2="271.817" gradientUnits="userSpaceOnUse">
<stop stop-color="#53D8FF"/>
<stop offset="1" stop-color="#3840F7"/>
</linearGradient>
<linearGradient id="paint35_linear_29_903" x1="351.46" y1="263.624" x2="304.135" y2="291.666" gradientUnits="userSpaceOnUse">
<stop stop-color="#CB236D"/>
<stop offset="1" stop-color="#4C246D"/>
</linearGradient>
<linearGradient id="paint36_linear_29_903" x1="262.058" y1="279.764" x2="299.478" y2="287.134" gradientUnits="userSpaceOnUse">
<stop stop-color="#53D8FF"/>
<stop offset="1" stop-color="#3840F7"/>
</linearGradient>
<linearGradient id="paint37_linear_29_903" x1="266.798" y1="255.689" x2="304.219" y2="263.059" gradientUnits="userSpaceOnUse">
<stop stop-color="#53D8FF"/>
<stop offset="1" stop-color="#3840F7"/>
</linearGradient>
<linearGradient id="paint38_linear_29_903" x1="316.441" y1="277.91" x2="306.187" y2="276.018" gradientUnits="userSpaceOnUse">
<stop stop-color="#2B3582"/>
<stop offset="1" stop-color="#150E42"/>
</linearGradient>
<linearGradient id="paint39_linear_29_903" x1="310.227" y1="285.08" x2="330.782" y2="268.377" gradientUnits="userSpaceOnUse">
<stop stop-color="#150E42"/>
<stop offset="1" stop-color="#498BEF"/>
</linearGradient>
</defs>
</svg>
